<?xml version="1.0" encoding="UTF-8" standalone="no"?>
<!-- Created with Inkscape (http://www.inkscape.org/) -->

<svg
   width="64"
   height="64"
   viewBox="0 0 16.933333 16.933333"
   version="1.1"
   id="svg5"
   xml:space="preserve"
   inkscape:version="1.2 (dc2aedaf03, 2022-05-15)"
   sodipodi:docname="BoolIcon.svg"
   inkscape:export-filename="BoolIcon.png"
   inkscape:export-xdpi="96"
   inkscape:export-ydpi="96"
   xmlns:inkscape="http://www.inkscape.org/namespaces/inkscape"
   xmlns:sodipodi="http://sodipodi.sourceforge.net/DTD/sodipodi-0.dtd"
   xmlns="http://www.w3.org/2000/svg"
   xmlns:svg="http://www.w3.org/2000/svg"><sodipodi:namedview
     id="namedview7"
     pagecolor="#9fafea"
     bordercolor="#000000"
     borderopacity="0.25"
     inkscape:showpageshadow="2"
     inkscape:pageopacity="0"
     inkscape:pagecheckerboard="0"
     inkscape:deskcolor="#d1d1d1"
     inkscape:document-units="mm"
     showgrid="false"
     inkscape:zoom="5.908137"
     inkscape:cx="-22.849843"
     inkscape:cy="27.250553"
     inkscape:window-width="1920"
     inkscape:window-height="1009"
     inkscape:window-x="-8"
     inkscape:window-y="-8"
     inkscape:window-maximized="1"
     inkscape:current-layer="layer1" /><defs
     id="defs2" /><g
     inkscape:label="Layer 1"
     inkscape:groupmode="layer"
     id="layer1"><path
       style="fill:#ffffff;fill-opacity:1;stroke:#ffffff;stroke-width:0.5;stroke-linecap:round;stroke-linejoin:round;stroke-dasharray:none;stroke-opacity:1"
       d="m 2.1835227,15.590956 c -0.2006199,-0.07261 -0.2832122,-0.14495 -0.364237,-0.31898 L 1.7418511,15.105657 1.741537,13.576379 1.7412228,12.0471 1.8296243,11.872561 c 0.073877,-0.14586 0.1170779,-0.189063 0.2629324,-0.262945 0.1644172,-0.08328 0.1993439,-0.08841 0.6027377,-0.08841 h 0.4784397 c 0,-1.459792 -0.023182,-1.9197168 0,-3.497888 C 3.2401055,7.8644652 3.3375625,7.7626941 3.4931807,7.6908677 3.6140736,7.6350701 5.7675108,7.630814 5.7675108,7.630814 L 7.8001801,7.6305068 V 5.1565123 L 7.3420992,5.1454614 C 6.9248358,5.1353948 6.8711292,5.1272489 6.7393621,5.0540416 6.6298639,4.9932065 6.5732189,4.9312507 6.5063034,4.7991337 L 6.4179018,4.6245945 V 3.0930434 1.5614932 L 6.5063033,1.3869538 C 6.5801798,1.2410929 6.6233811,1.1978896 6.7692352,1.1240097 l 0.1745311,-0.088405 h 1.53148 1.5314797 l 0.17453,0.088405 c 0.132111,0.066917 0.194062,0.1235658 0.254897,0.2330691 l 0.08037,0.144664 v 1.5913006 1.5913017 l -0.08076,0.1442595 c -0.05317,0.094949 -0.13008,0.1718697 -0.225024,0.2250327 -0.131726,0.073759 -0.184033,0.081732 -0.6023327,0.091824 l -0.4580792,0.011052 v 2.4739939 h 2.0345699 c 0,0 2.150427,0.00457 2.271316,0.060339 0.155617,0.071825 0.25405,0.1735975 0.32042,0.3324522 0.03253,1.6015337 0,1.4842768 0,3.4978876 h 0.477472 c 0.403395,0 0.438321,0.0051 0.602739,0.08841 0.132113,0.0669 0.194065,0.123568 0.254896,0.233069 l 0.08038,0.144663 v 1.591301 1.591302 l -0.08076,0.144259 c -0.05316,0.09495 -0.13008,0.171869 -0.225023,0.22503 l -0.144254,0.08079 H 13.15086 11.559631 L 11.414975,15.53964 C 11.305466,15.47879 11.24883,15.416841 11.181918,15.284726 l -0.08841,-0.174504 v -1.531555 -1.53155 l 0.08841,-0.174538 c 0.07389,-0.145867 0.117078,-0.189066 0.26293,-0.262946 0.164436,-0.08329 0.19932,-0.08841 0.603019,-0.08841 h 0.428467 l -0.01657,-2.5248322 -1.708758,-0.00825 -4.5495216,-1.061e-4 -1.7117749,0.00825 -0.01664,2.5248303 h 0.4284887 c 0.403701,0 0.4385848,0.0051 0.6030196,0.08841 0.1321107,0.0669 0.1940636,0.12357 0.2548957,0.233071 l 0.080365,0.144662 v 1.591302 1.591302 l -0.08077,0.144259 c -0.053159,0.09495 -0.130076,0.171864 -0.2250174,0.225032 l -0.1442529,0.08078 -1.5430087,0.0073 c -1.2312806,0.0057 -1.5673034,-0.0015 -1.663264,-0.0363 z M 5.1647734,13.57865 V 12.212382 H 3.7985679 2.4323624 l -0.00841,1.334101 c -0.00461,0.733756 -0.0014,1.35235 0.00717,1.374657 0.012257,0.03195 0.3042242,0.03875 1.3746052,0.03217 l 1.3590435,-0.0084 z m 9.3522226,0 V 12.212382 H 13.15079 11.784585 l -0.0084,1.334101 c -0.0047,0.733756 -0.0014,1.35235 0.0073,1.374657 0.01226,0.03195 0.304225,0.03875 1.374604,0.03217 l 1.359044,-0.0084 z M 9.8414521,3.0930434 V 1.7267752 H 8.4752465 7.1090411 l -0.00841,1.3341005 c -0.00461,0.7337554 -0.0014,1.3523507 0.00717,1.3746553 0.012257,0.031938 0.3042244,0.038776 1.3746053,0.032171 l 1.3590435,-0.00838 z"
       id="path302"
       sodipodi:nodetypes="cscccscsccccccssscccssccccsccccssccccccsccccccccccsccccscsccccccscscccssccccccccccsccccccccsccccccccccc" /></g></svg>
