<?xml version="1.0" encoding="UTF-8" standalone="no"?>
<svg
   height="24px"
   viewBox="0 0 24 24"
   width="24px"
   fill="#FFFFFF"
   version="1.1"
   id="svg4"
   sodipodi:docname="movie_white_24dp.svg"
   xml:space="preserve"
   inkscape:version="1.2 (dc2aedaf03, 2022-05-15)"
   xmlns:inkscape="http://www.inkscape.org/namespaces/inkscape"
   xmlns:sodipodi="http://sodipodi.sourceforge.net/DTD/sodipodi-0.dtd"
   xmlns="http://www.w3.org/2000/svg"
   xmlns:svg="http://www.w3.org/2000/svg"><defs
     id="defs8" /><sodipodi:namedview
     id="namedview6"
     pagecolor="#79d47d"
     bordercolor="#000000"
     borderopacity="0.25"
     inkscape:showpageshadow="2"
     inkscape:pageopacity="0"
     inkscape:pagecheckerboard="0"
     inkscape:deskcolor="#d1d1d1"
     showgrid="false"
     showguides="true"
     inkscape:zoom="12.212323"
     inkscape:cx="-1.8424013"
     inkscape:cy="10.890639"
     inkscape:window-width="1920"
     inkscape:window-height="1009"
     inkscape:window-x="-8"
     inkscape:window-y="-8"
     inkscape:window-maximized="1"
     inkscape:current-layer="svg4" /><path
     id="path2"
     d="M 4 4 C 2.9000011 4 2 4.9000011 2 6 L 2 18 C 2 19.099999 2.9000011 20 4 20 L 20 20 C 21.099999 20 22 19.099999 22 18 L 22 5 C 22 4.4500006 21.549999 4 21 4 L 18 4 L 19.820312 7.640625 C 19.900312 7.8006248 19.779609 8 19.599609 8 L 17.619141 8 C 17.239141 8 16.890469 7.7892184 16.730469 7.4492188 L 15 4 L 13 4 L 14.820312 7.640625 C 14.900312 7.8006248 14.779609 8 14.599609 8 L 12.619141 8 C 12.239141 8 11.890469 7.7892184 11.730469 7.4492188 L 10 4 L 8 4 L 9.8203125 7.640625 C 9.9003124 7.8006248 9.7796092 8 9.5996094 8 L 7.6191406 8 C 7.239141 8 6.890703 7.7892184 6.7207031 7.4492188 L 5 4 L 4 4 z M 10.628906 10.439453 C 10.73091 10.441267 10.836396 10.470822 10.933594 10.533203 L 15.65625 13.533203 C 16.016027 13.765318 16.016027 14.28736 15.65625 14.513672 L 10.933594 17.519531 C 10.544802 17.769054 10.039062 17.491629 10.039062 17.033203 L 10.039062 11.021484 C 10.039062 10.677665 10.322896 10.434013 10.628906 10.439453 z " /><g
     style="fill:#000000;stroke-width:1.55073"
     id="g246"
     transform="matrix(0.64485776,0,0,0.64485776,3.5700969,6.2883484)" /></svg>
