<?xml version="1.0" encoding="UTF-8" standalone="no"?>
<!-- Created with Inkscape (http://www.inkscape.org/) -->

<svg
   width="24mm"
   height="24mm"
   viewBox="0 0 24 24"
   version="1.1"
   id="svg5"
   xml:space="preserve"
   inkscape:version="1.2 (dc2aedaf03, 2022-05-15)"
   sodipodi:docname="Person2.svg"
   xmlns:inkscape="http://www.inkscape.org/namespaces/inkscape"
   xmlns:sodipodi="http://sodipodi.sourceforge.net/DTD/sodipodi-0.dtd"
   xmlns="http://www.w3.org/2000/svg"
   xmlns:svg="http://www.w3.org/2000/svg"><sodipodi:namedview
     id="namedview7"
     pagecolor="#ffafaf"
     bordercolor="#666666"
     borderopacity="1.0"
     inkscape:showpageshadow="2"
     inkscape:pageopacity="0"
     inkscape:pagecheckerboard="0"
     inkscape:deskcolor="#d1d1d1"
     inkscape:document-units="mm"
     showgrid="false"
     inkscape:zoom="5.4021324"
     inkscape:cx="-2.7766813"
     inkscape:cy="45.352461"
     inkscape:window-width="1920"
     inkscape:window-height="1009"
     inkscape:window-x="-8"
     inkscape:window-y="-8"
     inkscape:window-maximized="1"
     inkscape:current-layer="layer1" /><defs
     id="defs2" /><g
     inkscape:label="Layer 1"
     inkscape:groupmode="layer"
     id="layer1"><path
       style="fill:#ffffff;fill-opacity:1;stroke-width:0.0388966"
       d="M 3.7734046,23.943412 C 3.5688455,23.871052 3.3432985,23.626103 3.2850663,23.413068 3.2294031,23.209431 3.2581007,20.08675 3.3476148,19.47542 c 0.2702545,-1.845706 1.1274329,-3.553609 2.4531354,-4.887797 1.3427937,-1.351387 3.0181404,-2.195059 4.9545948,-2.495035 0.616699,-0.09553 1.870691,-0.09571 2.489383,-3.5e-4 0.969508,0.14943 1.723346,0.383966 2.586623,0.804749 2.60001,1.267313 4.402658,3.727099 4.820986,6.578431 0.09062,0.617669 0.118432,3.733618 0.06141,3.942326 -0.06074,0.222329 -0.312827,0.481318 -0.526104,0.540527 -0.111647,0.03099 -2.424512,0.04274 -8.207052,0.04166 -6.8399414,-0.0013 -8.0750077,-0.0098 -8.2071808,-0.05653 z"
       id="path302"
       sodipodi:nodetypes="csssssssssscc" /><circle
       style="opacity:1;fill:#ffffff;fill-rule:evenodd;stroke-width:1.8604;stroke-linecap:round;stroke-linejoin:round;stroke-miterlimit:5"
       id="path387"
       cx="12"
       cy="6.0242181"
       r="6.0242162" /></g></svg>
