<?xml version="1.0" encoding="UTF-8" standalone="no"?>
<!-- Created with Inkscape (http://www.inkscape.org/) -->

<svg
   width="24"
   height="24"
   viewBox="0 0 6.3499999 6.35"
   version="1.1"
   id="svg5"
   xml:space="preserve"
   inkscape:version="1.2 (dc2aedaf03, 2022-05-15)"
   sodipodi:docname="Robot.svg"
   xmlns:inkscape="http://www.inkscape.org/namespaces/inkscape"
   xmlns:sodipodi="http://sodipodi.sourceforge.net/DTD/sodipodi-0.dtd"
   xmlns="http://www.w3.org/2000/svg"
   xmlns:svg="http://www.w3.org/2000/svg"><sodipodi:namedview
     id="namedview7"
     pagecolor="#ff5a5a"
     bordercolor="#666666"
     borderopacity="1.0"
     inkscape:showpageshadow="2"
     inkscape:pageopacity="0"
     inkscape:pagecheckerboard="0"
     inkscape:deskcolor="#d1d1d1"
     inkscape:document-units="mm"
     showgrid="false"
     inkscape:zoom="15.279538"
     inkscape:cx="18.259715"
     inkscape:cy="5.3666545"
     inkscape:window-width="1920"
     inkscape:window-height="1009"
     inkscape:window-x="-8"
     inkscape:window-y="-8"
     inkscape:window-maximized="1"
     inkscape:current-layer="layer1" /><defs
     id="defs2" /><g
     inkscape:label="Layer 1"
     inkscape:groupmode="layer"
     id="layer1"><path
       style="fill:#ffffff;stroke-width:0.0137311;fill-opacity:1"
       d="M 0.75970883,6.3304088 C 0.67505722,6.2982322 0.6193613,6.247671 0.58004315,6.1673077 0.50697701,6.0179658 0.549508,5.8333923 0.67782897,5.7429432 l 0.0600373,-0.042317 V 4.9636613 c 0,-0.4438521 0.005574,-0.7663574 0.0140155,-0.8108668 0.0359002,-0.1893009 0.15732221,-0.351914 0.32115433,-0.4301022 0.053549,-0.025556 0.1076062,-0.04971 0.1201282,-0.053677 0.020432,-0.00647 0.023416,-0.054131 0.029096,-0.4646877 0.00554,-0.400325 0.00987,-0.4722796 0.034631,-0.5759701 0.1660535,-0.695244 0.6507802,-1.234386 1.3014233,-1.4475213 0.2342584,-0.076737 0.3534289,-0.094714 0.6236938,-0.094082 0.193017,4.274e-4 0.2664539,0.00632 0.3732503,0.029841 0.7077287,0.1558566 1.2538525,0.6371754 1.4734806,1.2986308 0.087362,0.2631102 0.092362,0.3031857 0.0993,0.7959719 0.00569,0.4040441 0.00869,0.4513603 0.029097,0.4578224 0.012515,0.00396 0.067067,0.028363 0.1212276,0.054222 0.1105047,0.052759 0.2039665,0.1448607 0.2607886,0.2569925 0.068575,0.1353277 0.072772,0.1919326 0.073029,0.984985 l 2.14e-4,0.7354053 0.05968,0.042066 C 5.791628,5.8269611 5.8407599,6.0163727 5.7785785,6.1532837 5.6462161,6.4447213 5.2146583,6.3977456 5.1445038,6.0842624 5.1149426,5.9521682 5.1791599,5.7967834 5.2904504,5.7311199 l 0.047324,-0.027921 v -0.466971 c 0,-0.3684351 -0.00362,-0.4653843 -0.017165,-0.4594496 -0.00944,0.00414 -0.054238,0.023003 -0.099551,0.041923 l -0.082386,0.034401 -0.00846,0.2787952 c -0.00696,0.22943 -0.01379,0.2968996 -0.038557,0.3810443 C 4.981588,5.8868851 4.7150876,6.1649806 4.3467054,6.2903036 4.1698518,6.3504685 4.1071762,6.3534149 3.1133296,6.3482833 2.0479725,6.3427834 2.1071401,6.3484439 1.8569301,6.2276359 1.5518231,6.0802967 1.3487267,5.8325117 1.2497405,5.4868424 1.2347481,5.4344873 1.2253768,5.3235767 1.2197502,5.1318977 L 1.2115667,4.8531036 1.12918,4.818702 C 1.0838673,4.799782 1.0390695,4.780916 1.0296293,4.776778 1.0160874,4.770848 1.0124653,4.867699 1.0124653,5.2357592 V 5.702262 l 0.054807,0.03627 C 1.27307,5.8747231 1.2547949,6.1953472 1.0347813,6.3085708 0.953653,6.3503208 0.83653027,6.3596178 0.75968491,6.3304088 Z M 4.0578715,3.4397897 C 4.1894466,3.418438 4.2857384,3.376584 4.3629063,3.3072034 4.4925444,3.1906475 4.5349864,3.0511674 4.522969,2.7811799 4.5141324,2.5826697 4.4917226,2.4877697 4.4175857,2.334918 4.2596632,2.0093211 3.932855,1.786745 3.497825,1.708506 c -0.1337332,-0.024052 -0.51163,-0.024052 -0.6453635,0 -0.5536124,0.099566 -0.9224646,0.4271411 -1.0118017,0.8985738 -0.029366,0.1549656 -0.01899,0.4130972 0.020729,0.5156967 0.071447,0.1845564 0.1977439,0.278807 0.4248468,0.3170474 0.098337,0.016557 1.6695761,0.016529 1.7716358,-2.75e-5 z M 2.2139635,3.025504 C 1.9968866,2.9496241 1.962815,2.662411 2.1566488,2.5423558 2.3826818,2.402358 2.64858,2.641897 2.5378382,2.8857574 2.4842374,3.0037896 2.3354754,3.0679786 2.2139635,3.025504 Z m 1.7442636,-0.0046 C 3.7986971,2.9603725 3.7366269,2.7614405 3.832205,2.6170126 c 0.1024721,-0.154846 0.3517952,-0.14955 0.4504402,0.00957 0.025102,0.04049 0.032017,0.071321 0.03209,0.1430631 1.069e-4,0.079567 -0.00526,0.099034 -0.041101,0.1498198 C 4.2018045,3.0212426 4.0704554,3.0634876 3.9582271,3.020904 Z M 3.0446977,0.79768995 V 0.65417266 L 2.9832298,0.61188154 C 2.949422,0.58862144 2.904624,0.54043723 2.883679,0.50480564 2.8511999,0.44955343 2.8363265,0.4202325 2.8363265,0.3324023 c 0,-0.0882108 0.015413,-0.12213824 0.050571,-0.17725987 0.1346846,-0.21116886 0.4628029,-0.20926713 0.5813363,0.0210648 0.082502,0.16031714 0.029418,0.36572804 -0.1145515,0.44326082 l -0.048092,0.0258992 v 0.14791994 0.1479202 H 3.1751432 3.0446977 Z"
       id="path302"
       sodipodi:nodetypes="csscssssssscssssssccsssscssscsssscsscssscsscccssssssssccsssssssccsccsssssscccccc" /></g></svg>
