<?xml version="1.0" encoding="UTF-8" standalone="no"?>
<svg
   width="1024"
   height="1024"
   clip-rule="evenodd"
   fill-rule="evenodd"
   image-rendering="optimizeQuality"
   shape-rendering="geometricPrecision"
   text-rendering="geometricPrecision"
   viewBox="0 0 270.93043 270.93207"
   version="1.1"
   id="svg950"
   sodipodi:docname="Ball11.svg"
   inkscape:version="1.2 (dc2aedaf03, 2022-05-15)"
   inkscape:export-filename="Ball11.png"
   inkscape:export-xdpi="96"
   inkscape:export-ydpi="96"
   xmlns:inkscape="http://www.inkscape.org/namespaces/inkscape"
   xmlns:sodipodi="http://sodipodi.sourceforge.net/DTD/sodipodi-0.dtd"
   xmlns="http://www.w3.org/2000/svg"
   xmlns:svg="http://www.w3.org/2000/svg">
  <sodipodi:namedview
     id="namedview952"
     pagecolor="#ffffff"
     bordercolor="#666666"
     borderopacity="1.0"
     inkscape:showpageshadow="2"
     inkscape:pageopacity="0.0"
     inkscape:pagecheckerboard="0"
     inkscape:deskcolor="#d1d1d1"
     inkscape:document-units="mm"
     showgrid="false"
     inkscape:zoom="0.46623155"
     inkscape:cx="182.31284"
     inkscape:cy="641.31224"
     inkscape:window-width="1920"
     inkscape:window-height="1009"
     inkscape:window-x="-8"
     inkscape:window-y="-8"
     inkscape:window-maximized="1"
     inkscape:current-layer="svg950" />
  <defs
     id="defs4">
    <style
       type="text/css"
       id="style2">
   
    .str2 {stroke:#1F1A17;stroke-width:0.999993}
    .str0 {stroke:#1F1A17;stroke-width:0.999993;stroke-linecap:round;stroke-linejoin:round}
    .str1 {stroke:black;stroke-width:0.999993;stroke-linecap:round;stroke-linejoin:round}
    .fil22 {fill:#DB214C}
    .fil18 {fill:#E87877}
    .fil20 {fill:#F8C300}
    .fil21 {fill:#FFF500}
    .fil19 {fill:white}
    .fil17 {fill:#31B2EA}
    .fil25 {fill:#3B1A16}
    .fil24 {fill:#5A311C}
    .fil26 {fill:#895842}
    .fil15 {fill:#93D0F4}
    .fil0 {fill:#BD905F}
    .fil16 {fill:#C5E5F9}
    .fil27 {fill:#D1D8DC}
    .fil23 {fill:#D7A877}
    .fil4 {fill:#E35F13}
    .fil1 {fill:#E7BC7D}
    .fil2 {fill:#EB891B}
    .fil3 {fill:#F5B855}
    .fil9 {fill:#007CC3;fill-rule:nonzero}
    .fil7 {fill:#6D609E;fill-rule:nonzero}
    .fil10 {fill:#75C5F0;fill-rule:nonzero}
    .fil11 {fill:#84C225;fill-rule:nonzero}
    .fil8 {fill:#BAB3D6;fill-rule:nonzero}
    .fil5 {fill:#DD137B;fill-rule:nonzero}
    .fil6 {fill:#F7C5B4;fill-rule:nonzero}
    .fil14 {fill:#FFF500;fill-rule:nonzero}
    .fil12 {fill:#C8E284;fill-rule:nonzero}
    .fil13 {fill:#FCDB00;fill-rule:nonzero}
   
  </style>
  </defs>
  <path
     class="fil0 str0"
     d="M 105.6728,5.7080981 C 27.797133,23.740426 1.038002,73.930826 1.038002,152.9742 c 0,128.25558 201.597748,154.09485 247.431738,62.07667 C 271.70925,168.40284 281.11912,111.084 250.44399,61.840591 227.48656,24.985042 161.4204,-12.278442 105.66427,5.7080981 Z M 140.21161,94.716709 C 115.95377,83.481468 99.523297,106.60006 88.568274,120.13347 c -12.319113,15.21759 3.84297,48.76055 17.762616,54.13445 13.86448,5.35163 19.6759,12.41617 39.47293,8.25233 29.16915,-6.13503 36.18352,-22.38223 36.18352,-53.14376 0,-21.37696 -26.12033,-29.862399 -41.7751,-34.659781 z"
     id="path860" />
  <path
     class="fil1"
     d="M 120.54359,15.324508 C 100.48316,4.4849217 30.659294,41.480125 30.659294,60.424063 c 0,27.060981 -20.071838,51.295567 -20.579767,73.292767 -0.1447677,6.27176 -3.3223883,12.52647 -2.7507858,18.37407 3.7332538,38.18342 25.1061288,66.97604 43.5318078,84.66496 2.212575,2.12417 9.356569,-0.0253 11.961967,1.82423 3.039697,2.15809 6.564718,10.33613 10.184936,12.12104 9.706043,4.7851 22.264708,6.14938 36.855508,8.7046 7.12574,1.24793 14.30333,5.39012 22.70648,5.3102 5.31573,-0.0503 10.53233,-7.34447 16.42258,-7.34447 5.36799,0 13.68112,7.18401 20.44038,4.72892 8.55496,-3.10739 17.45731,-13.88514 27.02668,-19.62349 31.26393,-18.74683 58.8506,-53.58291 60.55753,-75.51141 0.3644,-4.6798 3.98836,-8.33288 3.87202,-13.00767 -0.14519,-5.82597 -3.15627,-11.02046 -4.06428,-16.78461 C 251.6511,104.33039 246.47681,56.556374 221.54924,33.866108 198.18944,12.601531 156.09287,15.358829 120.54194,15.324487 Z m -19.3787,84.821042 c -3.88341,3.4383 -4.575514,8.42591 -6.981596,11.15366 -2.406289,2.72774 -6.527385,3.19687 -7.789224,5.58786 -4.989702,9.45448 -2.340335,17.7422 -2.340335,36.4268 0,12.44447 12.432561,19.84014 26.472905,26.64056 12.78308,6.19206 27.47053,13.96756 37.02351,7.90767 18.66274,-11.83799 30.986,-12.15122 36.90113,-38.27291 5.95931,-26.3138 -9.23234,-43.35335 -29.13804,-52.744152 -4.78686,-2.258202 -1.9867,-4.382581 -7.1274,-5.636976 -13.13691,-3.205608 -34.80844,-1.877306 -47.02241,8.937078 z"
     id="path862"
     style="stroke-width:2.07766" />
  <path
     class="fil24 str0"
     d="M 119.15399,11.533639 C 97.107054,21.744673 89.835506,19.78597 66.853184,19.78597 34.823945,19.78597 60.81838,39.045429 47.445867,52.464362 8.9021,91.143127 17.1837,73.639446 17.1837,135.64743 c 0,14.22856 -22.588256,85.82424 17.433672,85.82424 38.759465,0 47.258838,32.67839 79.603328,32.67839 24.486,0 37.69134,-13.61083 59.86687,-16.17436 20.76725,-2.40099 20.92902,12.69882 34.20905,17.82481 12.34358,4.76492 4.01158,-20.53008 12.17082,-28.71768 21.24429,-21.31869 36.84099,-22.47589 36.84099,-61.39609 0,-48.78552 15.77279,-90.642421 -25.65783,-116.852153 C 192.63395,24.15044 167.93641,-5.8847084 119.15316,11.533639 Z m -1.28922,80.623076 c -22.316556,5.970816 -40.814827,17.676015 -40.814827,47.451415 0,16.39893 27.080607,54.29055 44.077287,49.84283 9.77614,-2.55812 42.15879,-4.0273 46.37944,-9.24261 7.13217,-8.81053 30.4343,-34.9699 21.71093,-52.48399 -3.52895,-7.0843 -18.24959,-19.35957 -19.07837,-25.74768 -0.91029,-7.014587 -1.25354,-13.928854 -5.46361,-16.336494 -4.19473,-2.398899 -9.32878,1.386557 -15.61951,2.288382 -10.48484,1.503318 -23.01345,2.039646 -31.19134,4.227316 z"
     id="path864" />
  <path
     class="fil26"
     d="m 108.9705,30.01865 c -3.45574,-0.990698 -23.268534,-0.797552 -26.642981,1.320371 -10.056554,6.308611 -25.65782,-17.25538 -25.65782,4.621305 0,37.244754 -26.881498,24.765315 -33.881348,48.19236 -1.99395,6.674084 -3.947294,12.360385 -3.947294,22.446744 0,5.5554 5.592,27.94554 5.592,18.48502 0,-15.36015 2.035016,-28.08498 8.881409,-37.960719 6.163601,-8.891702 15.5714,-8.055023 22.696106,-13.863913 8.814834,-7.185874 9.596328,-27.431452 17.433671,-32.349551 4.304026,-2.699855 11.551723,-4.29121 18.420494,-4.29121 2.867553,0 18.585583,-5.006345 17.104733,-6.601865 z"
     id="path866"
     style="stroke-width:2.07766" />
  <path
     class="fil26"
     d="m 148.77113,8.5628007 c -4.09787,0.8812198 -9.8031,3.0532583 -12.82871,4.9513983 -9.48764,5.951668 12.45601,1.320372 15.46003,1.320372 7.71768,0 14.25813,-0.387953 20.39414,1.980539 1.19195,0.460174 9.74193,6.667632 7.56564,0.99028 -2.61721,-6.828101 -20.38708,-9.2426102 -30.59192,-9.2426102 z"
     id="path868"
     style="stroke-width:2.07766" />
  <path
     class="fil26"
     d="m 16.862848,161.39407 c 2.206352,-6.64265 5.777211,21.82653 6.578823,23.43537 9.983341,20.04183 8.255052,17.92556 33.551576,23.10653 12.105282,2.47924 17.279986,18.26586 9.210352,13.20372 -4.845349,-3.03973 -17.82276,-1.11494 -24.340811,-3.63102 -6.094952,-2.35269 -12.169578,0.1276 -16.775789,-3.9611 -7.349118,-6.52362 -7.5335,-11.6357 -10.526117,-22.44677 -3.061475,-11.05917 2.631529,-21.77033 2.302588,-29.70839 z"
     id="path870"
     style="stroke-width:2.07766" />
  <path
     class="fil26"
     d="m 101.40029,235.65881 c -10.231182,-2.36914 -10.731647,-0.49932 -3.618348,4.6213 8.375758,6.02909 50.985868,5.68361 50.985868,-5.61158 0,-4.78948 -9.62578,1.03585 -10.85505,1.32038 -11.77324,2.72482 -24.92569,4.64606 -36.51122,-0.3301 z"
     id="path872"
     style="stroke-width:2.07766" />
  <path
     class="fil26"
     d="m 180.00601,228.08289 c -3.4207,0 -8.32681,1.42131 -2.63153,2.97084 5.43501,1.47855 15.99202,7.13572 19.40732,10.56298 3.16788,3.17897 5.05628,9.12564 9.21035,10.56299 4.59233,1.58925 4.53509,-5.0642 2.96048,-7.59215 -5.08449,-8.16179 -17.55086,-16.17436 -28.94724,-16.50445 z"
     id="path874"
     style="stroke-width:2.07766" />
  <path
     class="fil26"
     d="m 207.32098,115.84288 c -5.94811,0.45913 -4.27623,18.12245 -4.27623,23.76629 0,30.69909 -38.26377,62.1516 -64.80098,64.36818 -13.70933,1.1445 -24.15622,0.33009 -37.49845,0.33009 -20.790077,0 18.14941,7.26206 27.95999,7.26206 17.97189,0 34.78977,-8.91253 54.60297,-8.91253 11.75041,0 12.3185,-1.5778 13.15765,-12.54353 1.78052,-23.27095 19.53197,-49.13727 10.85505,-74.27097 z"
     id="path876"
     style="stroke-width:2.07766" />
  <path
     class="fil25"
     d="m 236.58555,183.5099 c -10.68748,9.95879 -20.14049,8.64903 -26.31528,24.75699 -1.21103,3.15982 0.919,6.85641 2.63152,8.25235 1.73304,1.41297 4.02196,-3.70596 5.26306,-4.95141 8.56491,-8.59491 29.6047,-8.54642 29.6047,-24.09722 0,-13.016 -1.26537,-28.48668 -1.97362,-42.25234 -0.52971,-10.29804 3.94728,-14.68187 3.94728,-23.10653 0,-3.8658 -3.75399,-0.90037 -4.60517,1.32038 -5.70836,14.89206 4.56286,50.61706 -8.55247,60.07654 z"
     id="path878"
     style="stroke-width:2.07766" />
  <path
     class="fil25"
     d="m 179.44602,107.33871 c 12.55287,16.37604 -1.16063,-11.02211 -1.97362,-12.87363 -3.56837,-8.127037 0.0359,-21.786983 -9.53929,-21.786983 -13.78359,0 -34.85407,2.753552 -48.6837,-0.330093 -19.641678,-4.380085 -28.903672,21.083504 -35.853745,28.057916 -7.977963,8.00591 -11.850797,7.97739 -19.078376,21.12514 -4.238694,7.71077 -0.622,21.92643 3.618352,26.7363 1.689277,1.91664 14.910614,16.67657 9.868232,8.58242 -5.589302,-8.97184 -1.065842,-35.81906 2.96047,-43.90281 6.271037,-12.58933 38.122737,-29.377463 54.275277,-29.377463 8.47034,0 25.4836,-8.473571 32.89411,-3.300932 4.50916,3.147749 5.15127,27.067225 11.51294,27.067225 z"
     id="path880"
     style="stroke-width:2.07766" />
  <ellipse
     class="fil27 str2"
     cx="182.18375"
     cy="33.321659"
     id="circle882"
     rx="6.3900857"
     ry="6.412466" />
  <ellipse
     class="fil19"
     cx="181.043"
     cy="31.979227"
     id="circle884"
     rx="2.8434949"
     ry="2.8534541"
     style="stroke-width:2.07766" />
  <ellipse
     class="fil27 str2"
     cx="123.71684"
     cy="40.943363"
     id="circle886"
     rx="6.3900857"
     ry="6.412466" />
  <ellipse
     class="fil19"
     cx="122.55539"
     cy="39.600925"
     id="circle888"
     rx="2.8434949"
     ry="2.8534541"
     style="stroke-width:2.07766" />
  <ellipse
     class="fil27 str2"
     cx="108.51423"
     cy="64.189331"
     id="circle890"
     rx="6.3900857"
     ry="6.412466" />
  <ellipse
     class="fil19"
     cx="107.37351"
     cy="62.846893"
     id="circle892"
     rx="2.8434949"
     ry="2.8534541"
     style="stroke-width:2.07766" />
  <ellipse
     class="fil27 str2"
     cx="67.510666"
     cy="102.29783"
     id="circle894"
     rx="6.3900857"
     ry="6.412466" />
  <ellipse
     class="fil19"
     cx="66.349213"
     cy="100.95331"
     id="circle896"
     rx="2.8434949"
     ry="2.8534541"
     style="stroke-width:2.07766" />
  <ellipse
     class="fil27 str2"
     cx="35.217999"
     cy="145.74066"
     id="circle898"
     rx="6.3900857"
     ry="6.412466" />
  <ellipse
     class="fil19"
     cx="34.077278"
     cy="144.39824"
     id="circle900"
     rx="2.8434949"
     ry="2.8534541"
     style="stroke-width:2.07766" />
  <ellipse
     class="fil27 str2"
     cx="73.587555"
     cy="180.0383"
     id="circle902"
     rx="6.3900857"
     ry="6.412466" />
  <ellipse
     class="fil19"
     cx="72.426102"
     cy="178.69586"
     id="circle904"
     rx="2.8434949"
     ry="2.8534541"
     style="stroke-width:2.07766" />
  <ellipse
     class="fil27 str2"
     cx="43.970409"
     cy="195.66257"
     id="circle906"
     rx="6.3900857"
     ry="6.412466" />
  <ellipse
     class="fil19"
     cx="42.80896"
     cy="194.32013"
     id="circle908"
     rx="2.8434949"
     ry="2.8534541"
     style="stroke-width:2.07766" />
  <ellipse
     class="fil27 str2"
     cx="91.424225"
     cy="215.09563"
     id="circle910"
     rx="6.3900857"
     ry="6.412466" />
  <ellipse
     class="fil19"
     cx="90.283493"
     cy="213.7636"
     id="circle912"
     rx="2.8434949"
     ry="2.8534541"
     style="stroke-width:2.07766" />
  <ellipse
     class="fil27 str2"
     cx="169.65662"
     cy="205.57161"
     id="circle914"
     rx="6.3900857"
     ry="6.412466" />
  <ellipse
     class="fil19"
     cx="168.5159"
     cy="204.22708"
     id="circle916"
     rx="2.8434949"
     ry="2.8534541"
     style="stroke-width:2.07766" />
  <ellipse
     class="fil27 str2"
     cx="204.20995"
     cy="218.52975"
     id="circle918"
     rx="6.3900857"
     ry="6.412466" />
  <ellipse
     class="fil19"
     cx="203.06921"
     cy="217.17693"
     id="circle920"
     rx="2.8434949"
     ry="2.8534541"
     style="stroke-width:2.07766" />
  <ellipse
     class="fil27 str2"
     cx="206.11806"
     cy="184.23004"
     id="circle922"
     rx="6.3900857"
     ry="6.412466" />
  <ellipse
     class="fil19"
     cx="204.9566"
     cy="182.88759"
     id="circle924"
     rx="2.8434949"
     ry="2.8534541"
     style="stroke-width:2.07766" />
  <ellipse
     class="fil27 str2"
     cx="61.018932"
     cy="58.078655"
     id="circle926"
     rx="6.3900857"
     ry="6.412466" />
  <ellipse
     class="fil19"
     cx="59.878212"
     cy="56.734138"
     id="circle928"
     rx="2.8434949"
     ry="2.8534541"
     style="stroke-width:2.07766" />
  <ellipse
     class="fil27 str2"
     cx="217.87779"
     cy="125.92467"
     id="circle930"
     rx="6.3900857"
     ry="6.412466" />
  <ellipse
     class="fil19"
     cx="216.73709"
     cy="124.58224"
     id="circle932"
     rx="2.8434949"
     ry="2.8534541"
     style="stroke-width:2.07766" />
  <ellipse
     class="fil27 str2"
     cx="226.23611"
     cy="156.79234"
     id="circle934"
     rx="6.3900857"
     ry="6.412466" />
  <ellipse
     class="fil19"
     cx="225.0954"
     cy="155.44991"
     id="circle936"
     rx="2.8434949"
     ry="2.8534541"
     style="stroke-width:2.07766" />
  <ellipse
     class="fil27 str2"
     cx="145.74306"
     cy="73.902733"
     id="circle938"
     rx="6.3900857"
     ry="6.412466" />
  <ellipse
     class="fil19"
     cx="144.5816"
     cy="72.55822"
     id="circle940"
     rx="2.8434949"
     ry="2.8534541"
     style="stroke-width:2.07766" />
  <ellipse
     class="fil27 str2"
     cx="193.96423"
     cy="83.243568"
     id="circle942"
     rx="6.3900857"
     ry="6.412466" />
  <ellipse
     class="fil19"
     cx="192.8028"
     cy="81.901146"
     id="circle944"
     rx="2.8434949"
     ry="2.8534541"
     style="stroke-width:2.07766" />
  <ellipse
     class="fil27 str2"
     cx="208.77281"
     cy="53.901497"
     id="circle946"
     rx="6.3900857"
     ry="6.412466" />
  <ellipse
     class="fil19"
     cx="207.63208"
     cy="52.55698"
     id="circle948"
     rx="2.8434949"
     ry="2.8534541"
     style="stroke-width:2.07766" />
</svg>
