<?xml version="1.0" encoding="UTF-8" standalone="no"?>
<svg
   width="1024"
   height="1024"
   version="1.0"
   id="svg32"
   sodipodi:docname="Basketball.svg"
   inkscape:version="1.2 (dc2aedaf03, 2022-05-15)"
   inkscape:export-filename="Ball1.png"
   inkscape:export-xdpi="96"
   inkscape:export-ydpi="96"
   xmlns:inkscape="http://www.inkscape.org/namespaces/inkscape"
   xmlns:sodipodi="http://sodipodi.sourceforge.net/DTD/sodipodi-0.dtd"
   xmlns="http://www.w3.org/2000/svg"
   xmlns:svg="http://www.w3.org/2000/svg">
  <defs
     id="defs36" />
  <sodipodi:namedview
     id="namedview34"
     pagecolor="#ffffff"
     bordercolor="#666666"
     borderopacity="1.0"
     inkscape:showpageshadow="2"
     inkscape:pageopacity="0.0"
     inkscape:pagecheckerboard="0"
     inkscape:deskcolor="#d1d1d1"
     showgrid="false"
     inkscape:zoom="0.34380053"
     inkscape:cx="61.08193"
     inkscape:cy="529.37673"
     inkscape:window-width="1920"
     inkscape:window-height="1009"
     inkscape:window-x="-8"
     inkscape:window-y="-8"
     inkscape:window-maximized="1"
     inkscape:current-layer="g30" />
  <g
     transform="matrix(0.8846,0,0,0.8846,-583.95353,-693.36017)"
     id="g30">
    <path
       fill="#ff6600"
       fill-rule="evenodd"
       stroke="#333333"
       stroke-width="14.531"
       d="m 1810.4527,1362.6048 a 571.52716,571.35843 0 1 1 -1143.0543,0 571.52716,571.35843 0 1 1 1143.0543,0 z"
       color="#000000"
       overflow="visible"
       style="marker:none"
       id="path4" />
    <path
       fill="#d45500"
       fill-rule="evenodd"
       d="m 1303.46,794.88441 c 127.6805,104.81402 209.1399,263.61189 209.1399,441.54029 -10e-5,315.3903 -255.8489,571.3915 -571.33106,571.3915 -21.90767,0 -43.67615,-1.2294 -64.94468,-3.6322 98.67805,81.0972 225.02914,129.8515 362.64534,129.8515 315.4821,0 571.5582,-256.0012 571.5581,-571.3916 0,-293.5664 -221.9485,-535.6624 -507.0676,-567.75949 z"
       color="#000000"
       overflow="visible"
       style="stroke-width:8.30947;marker:none"
       id="path6" />
    <path
       fill="none"
       stroke="#666666"
       stroke-width="14.5309"
       d="m 667.69084,1346.0033 c 0,0 153.65995,-298.7721 558.29466,-329.5717 437.0321,-33.26547 566.8769,204.8685 566.8769,204.8685"
       id="path10" />
    <path
       fill="none"
       stroke="#4d4d4d"
       stroke-width="14.5309"
       d="m 1218.1242,791.6542 c 0,0 -351.65333,91.55407 -325.62899,327.9136 31.60949,284.6879 880.51009,441.3259 880.51009,441.3259"
       color="#000000"
       overflow="visible"
       style="marker:none"
       id="path14" />
    <path
       fill="none"
       stroke="#4d4d4d"
       stroke-width="14.5309"
       d="m 789.32905,1011.6347 c 0,0 -94.84912,238.6272 165.54563,616.4175 188.47242,273.4428 546.02472,241.5669 546.02472,241.5669"
       color="#000000"
       overflow="visible"
       style="marker:none"
       id="path18" />
    <path
       fill="none"
       stroke="#4d4d4d"
       stroke-width="14.5309"
       d="m 693.36078,1191.8353 c 0,0 -16.19468,101.6245 9.59678,237.1404 25.79153,135.5158 96.30013,297.4154 96.30013,297.4154"
       color="#000000"
       overflow="visible"
       style="marker:none"
       id="path22" />
    <path
       fill="none"
       stroke="#4d4d4d"
       stroke-width="14.5309"
       d="m 667.69084,1346.0033 c 0,0 153.65995,-298.7721 558.29466,-329.5717 437.0321,-33.26547 566.8769,204.8685 566.8769,204.8685"
       id="path24" />
    <path
       fill="none"
       d="m 1810.4527,1362.6048 a 571.52716,571.35843 0 1 1 -1143.0543,0 571.52716,571.35843 0 1 1 1143.0543,0 z"
       color="#000000"
       overflow="visible"
       style="stroke-width:11.5045;marker:none"
       id="path26" />
    <path
       fill="none"
       stroke="#4d4d4d"
       stroke-width="14.531"
       d="m 1810.4527,1362.6048 a 571.52716,571.35843 0 1 1 -1143.0543,0 571.52716,571.35843 0 1 1 1143.0543,0 z"
       color="#000000"
       overflow="visible"
       style="marker:none"
       id="path28" />
  </g>
</svg>
