<?xml version="1.0" encoding="UTF-8" standalone="no"?>
<svg
   viewBox="0 0 1024 1024"
   height="1024"
   width="1024"
   xml:space="preserve"
   id="svg2"
   version="1.1"
   sodipodi:docname="Ball4.svg"
   inkscape:version="1.2 (dc2aedaf03, 2022-05-15)"
   inkscape:export-filename="Ball4.png"
   inkscape:export-xdpi="96"
   inkscape:export-ydpi="96"
   xmlns:inkscape="http://www.inkscape.org/namespaces/inkscape"
   xmlns:sodipodi="http://sodipodi.sourceforge.net/DTD/sodipodi-0.dtd"
   xmlns="http://www.w3.org/2000/svg"
   xmlns:svg="http://www.w3.org/2000/svg"
   xmlns:rdf="http://www.w3.org/1999/02/22-rdf-syntax-ns#"
   xmlns:cc="http://creativecommons.org/ns#"
   xmlns:dc="http://purl.org/dc/elements/1.1/"><sodipodi:namedview
     id="namedview66"
     pagecolor="#ffffff"
     bordercolor="#666666"
     borderopacity="1.0"
     inkscape:showpageshadow="2"
     inkscape:pageopacity="0.0"
     inkscape:pagecheckerboard="0"
     inkscape:deskcolor="#d1d1d1"
     showgrid="false"
     inkscape:zoom="0.53598694"
     inkscape:cx="277.99185"
     inkscape:cy="602.62662"
     inkscape:window-width="1920"
     inkscape:window-height="1009"
     inkscape:window-x="-8"
     inkscape:window-y="-8"
     inkscape:window-maximized="1"
     inkscape:current-layer="svg2" /><metadata
     id="metadata8"><rdf:RDF><cc:Work
         rdf:about=""><dc:format>image/svg+xml</dc:format><dc:type
           rdf:resource="http://purl.org/dc/dcmitype/StillImage" /></cc:Work></rdf:RDF></metadata><defs
     id="defs6"><clipPath
       id="clipPath18"
       clipPathUnits="userSpaceOnUse"><path
         id="path16"
         d="M 0,3000 H 3000 V 0 H 0 Z" /></clipPath><clipPath
       id="clipPath106"
       clipPathUnits="userSpaceOnUse"><path
         id="path104"
         d="m 1750.62,2777.69 h 1046.5 V 574.508 h -1046.5 z" /></clipPath><clipPath
       id="clipPath122"
       clipPathUnits="userSpaceOnUse"><path
         id="path120"
         d="M 208.526,2281.33 H 1456.14 V 208.517 H 208.526 Z" /></clipPath></defs><g
     transform="matrix(0.3911701,0,0,-0.39116995,-74.755186,1098.7549)"
     id="g10"><g
       id="g12"><g
         clip-path="url(#clipPath18)"
         id="g14"><g
           transform="translate(2808.8936,1500)"
           id="g20"><path
             id="path22"
             style="fill:#b87c36;fill-opacity:1;fill-rule:nonzero;stroke:none"
             d="m 0,0 c 0,-722.882 -586.011,-1308.894 -1308.894,-1308.894 -722.882,0 -1308.893,586.012 -1308.893,1308.894 0,722.882 586.011,1308.894 1308.893,1308.894 C -586.011,1308.894 0,722.882 0,0" /></g><g
           transform="translate(1486.6011,1652.5331)"
           id="g24"><path
             id="path26"
             style="fill:#e09a40;fill-opacity:1;fill-rule:nonzero;stroke:none"
             d="m 0,0 v -427.489 l -370.21,-213.745 -370.209,213.745 V 0 l 370.209,213.745 z" /></g><g
           transform="translate(1873.2118,543.3387)"
           id="g28"><path
             id="path30"
             style="fill:#e09a40;fill-opacity:1;fill-rule:nonzero;stroke:none"
             d="M 0,0 276.603,-159.689 C 86.539,-270.546 -134.414,-334.273 -370.21,-334.822 v 121.095 z" /></g><g
           transform="translate(2257.3428,2546.2114)"
           id="g32"><path
             id="path34"
             style="fill:#e09a40;fill-opacity:1;fill-rule:nonzero;stroke:none"
             d="M 0,0 -369.962,-213.603 -740.171,0.142 V 245.165 C -463.834,241.552 -208.449,151.169 0,0" /></g><g
           transform="translate(1861.345,989.0533)"
           id="g36"><path
             id="path38"
             style="fill:#e09a40;fill-opacity:1;fill-rule:nonzero;stroke:none"
             d="m 0,0 v -427.471 l -370.21,-213.745 -370.209,213.745 V 0 l 370.209,213.745 z" /></g><g
           transform="translate(1870.2008,2308.2727)"
           id="g40"><path
             id="path42"
             style="fill:#e8efc5;fill-opacity:1;fill-rule:nonzero;stroke:none"
             d="m 0,0 v -427.489 l -370.21,-213.727 -370.209,213.727 V 0 l 370.209,213.745 z" /></g><g
           transform="translate(2254.0483,1648.9907)"
           id="g44"><path
             id="path46"
             style="fill:#e09a40;fill-opacity:1;fill-rule:nonzero;stroke:none"
             d="m 0,0 v -427.489 l -370.21,-213.745 -370.209,213.745 V 0 l 370.209,213.745 z" /></g><g
           transform="translate(1490.1434,2791.4475)"
           id="g48"><path
             id="path50"
             style="fill:#e09a40;fill-opacity:1;fill-rule:nonzero;stroke:none"
             d="m 0,0 v -245.094 l -370.21,-213.745 -370.209,213.745 v 4.959 C -531.439,-90.719 -276.019,-2.054 0,0" /></g><g
           transform="translate(2637.7366,2111.6377)"
           id="g52"><path
             id="path54"
             style="fill:#e09a40;fill-opacity:1;fill-rule:nonzero;stroke:none"
             d="m 0,0 v -229.543 l -370.209,-213.745 -370.21,213.745 v 427.489 l 370.21,213.744 70.758,-40.86 C -178.144,267.234 -76.249,141.534 0,0" /></g><g
           transform="translate(2752.0125,1818.1196)"
           id="g56"><path
             id="path58"
             style="fill:#e8efc5;fill-opacity:1;fill-rule:nonzero;stroke:none"
             d="M 0,0 -93.217,53.808 V 252.71 C -53.773,172.795 -22.352,88.204 0,0" /></g><g
           transform="translate(2627.8005,989.2304)"
           id="g60"><path
             id="path62"
             style="fill:#e8efc5;fill-opacity:1;fill-rule:nonzero;stroke:none"
             d="m 0,0 v -118.987 c -108.626,-194.12 -265.923,-357.316 -455.367,-473.061 l -285.052,164.577 V 0 l 370.209,213.745 z" /></g><g
           transform="translate(1486.6011,1225.0438)"
           id="g64"><path
             id="path66"
             style="fill:#ab6031;fill-opacity:1;fill-rule:evenodd;stroke:none"
             d="M 0,0 V 427.489 L -370.21,641.234 -740.419,427.489 V 0 l 370.209,-213.745 z m 374.744,-663.462 v 427.471 L 4.534,-22.246 -365.675,-235.991 V -663.462 L 4.534,-877.207 Z M 383.6,655.74 v 427.489 L 13.39,1296.974 -356.82,1083.229 V 655.74 L 13.39,442.013 Z M 767.447,-3.542 V 423.947 L 397.238,637.692 27.028,423.947 V -3.542 l 370.21,-213.745 z M 1271.965,565.959 1159.991,630.607 789.782,416.862 V -10.627 l 370.209,-213.745 58.396,33.723 c -4.18,-10.839 -8.52,-21.608 -12.983,-32.306 l -40.099,-23.149 v -63.514 c -7.74,-15.232 -15.781,-30.305 -24.106,-45.183 v 118.988 L 770.99,-22.069 400.78,-235.813 v -427.472 l 285.052,-164.577 c -7.492,-4.587 -15.037,-9.086 -22.618,-13.532 L 386.611,-681.705 16.401,-895.432 v -121.095 H 13.39 c -10.556,0 -21.077,0.124 -31.58,0.39 v 126.018 l -370.21,213.727 -266.631,-153.932 c -6.748,4.092 -13.461,8.254 -20.138,12.469 l 278.764,160.946 v 427.472 l -370.21,213.744 -370.227,-213.744 v -83.458 c -8.537,16.685 -16.72,33.564 -24.549,50.656 v 36.982 l -21.36,12.327 c -3.879,9.511 -7.651,19.058 -11.3,28.675 l 57.209,-33.032 370.227,213.745 v 427.489 l -370.227,213.745 -105.81,-61.088 c 1.895,7.988 3.897,15.958 5.951,23.893 l 93.022,53.702 v 195.059 c 7.067,14.204 14.382,28.25 21.945,42.153 V 663.055 l 370.21,-213.745 370.209,213.745 v 427.471 l -370.209,213.745 -56.27,-32.484 c 22.989,18.952 46.634,37.124 70.917,54.482 v -4.96 l 370.21,-213.744 370.209,213.744 v 245.095 c 3.277,0.018 6.571,0.035 9.848,0.035 5.739,0 11.459,-0.035 17.18,-0.106 v -245.024 l 370.21,-213.744 369.962,213.603 c 27.842,-20.174 54.835,-41.446 80.942,-63.745 l -70.758,40.861 -370.21,-213.744 V 657.05 l 370.21,-213.744 370.209,213.744 v 229.544 c 7.262,-13.461 14.276,-27.064 21.06,-40.808 V 646.884 l 93.216,-53.808 c 2.267,-8.998 4.464,-18.048 6.554,-27.117" /></g><g
           transform="translate(2758.5657,1791.0031)"
           id="g68"><path
             id="path70"
             style="fill:#e09a40;fill-opacity:1;fill-rule:nonzero;stroke:none"
             d="m 0,0 c 21.538,-93.536 32.908,-190.932 32.908,-291.003 0,-164.152 -30.623,-321.148 -86.486,-465.605 l -58.395,-33.723 -370.21,213.745 v 427.489 l 370.21,213.745 z" /></g><g
           transform="translate(2692.0054,1002.0891)"
           id="g72"><path
             id="path74"
             style="fill:#e09a40;fill-opacity:1;fill-rule:nonzero;stroke:none"
             d="m 0,0 c -12.327,-29.455 -25.7,-58.36 -40.099,-86.663 v 63.514 z" /></g><g
           transform="translate(325.2105,999.7866)"
           id="g76"><path
             id="path78"
             style="fill:#e09a40;fill-opacity:1;fill-rule:nonzero;stroke:none"
             d="m 0,0 v -36.982 c -7.457,16.259 -14.577,32.696 -21.36,49.309 z" /></g><g
           transform="translate(342.9221,2074.3015)"
           id="g80"><path
             id="path82"
             style="fill:#e8efc5;fill-opacity:1;fill-rule:nonzero;stroke:none"
             d="m 0,0 v -195.059 l -93.022,-53.702 C -70.475,-161.956 -39.143,-78.693 0,0" /></g><g
           transform="translate(719.9862,1648.9907)"
           id="g84"><path
             id="path86"
             style="fill:#e09a40;fill-opacity:1;fill-rule:nonzero;stroke:none"
             d="m 0,0 v -427.489 l -370.227,-213.745 -57.209,33.032 c -54.304,142.686 -84.024,297.468 -84.024,459.211 0,103.879 12.256,204.871 35.423,301.648 l 105.81,61.088 z" /></g><g
           transform="translate(1468.4113,334.9253)"
           id="g88"><path
             id="path90"
             style="fill:#e09a40;fill-opacity:1;fill-rule:nonzero;stroke:none"
             d="m 0,0 v -126.019 c -232.767,5.58 -450.267,72.742 -636.841,185.814 l 266.631,153.932 z" /></g><g
           transform="translate(1090.1959,995.6066)"
           id="g92"><path
             id="path94"
             style="fill:#e8efc5;fill-opacity:1;fill-rule:nonzero;stroke:none"
             d="m 0,0 v -427.472 l -278.764,-160.946 c -195.59,123.504 -355.722,298.07 -461.673,504.961 V 0 l 370.227,213.745 z" /></g><g
           transform="translate(1105.2863,2315.5701)"
           id="g96"><path
             id="path98"
             style="fill:#e09a40;fill-opacity:1;fill-rule:nonzero;stroke:none"
             d="m 0,0 v -427.472 l -370.21,-213.744 -370.209,213.744 v 228.357 c 79.543,146.157 186.486,275.257 313.939,380.376 l 56.27,32.484 z" /></g><g
           id="g100"><g
             id="g102" /><g
             id="g114"><g
               style="opacity:0.300003"
               id="g112"
               clip-path="url(#clipPath106)"><g
                 id="g110"
                 transform="translate(1750.6163,2777.6909)"><path
                   id="path108"
                   style="fill:#e8efc5;fill-opacity:1;fill-rule:nonzero;stroke:none"
                   d="m 0,0 c 458.117,-221.439 795.892,-615.761 886.65,-1108.262 71.275,-386.78 -21.587,-770.188 -234.071,-1094.921 243.104,236.144 393.928,565.105 393.928,928.956 C 1046.507,-646.374 597.437,-122.392 0,0" /></g></g></g></g><g
           id="g116"><g
             id="g118" /><g
             id="g130"><g
               style="opacity:0.100006"
               id="g128"
               clip-path="url(#clipPath122)"><g
                 id="g126"
                 transform="translate(464.5109,2281.3291)"><path
                   id="path124"
                   style="fill:#1d1d1d;fill-opacity:1;fill-rule:nonzero;stroke:none"
                   d="m 0,0 c -191.736,-471.321 -178.307,-990.36 84.283,-1416.788 206.221,-334.89 532.036,-557.309 907.344,-656.024 -338.687,12.433 -671.053,155.598 -914.825,425.713 C -343.848,-1180.993 -361.525,-491.132 0,0" /></g></g></g></g></g></g></g></svg>
