<?xml version="1.0" encoding="UTF-8" standalone="no"?>
<svg
   viewBox="0 0 1024 1024"
   version="1.1"
   id="svg39"
   sodipodi:docname="Ball12.svg"
   width="1024"
   height="1024"
   inkscape:version="1.2 (dc2aedaf03, 2022-05-15)"
   inkscape:export-filename="Ball12.png"
   inkscape:export-xdpi="96"
   inkscape:export-ydpi="96"
   xmlns:inkscape="http://www.inkscape.org/namespaces/inkscape"
   xmlns:sodipodi="http://sodipodi.sourceforge.net/DTD/sodipodi-0.dtd"
   xmlns="http://www.w3.org/2000/svg"
   xmlns:svg="http://www.w3.org/2000/svg">
  <sodipodi:namedview
     id="namedview41"
     pagecolor="#ffffff"
     bordercolor="#666666"
     borderopacity="1.0"
     inkscape:showpageshadow="2"
     inkscape:pageopacity="0.0"
     inkscape:pagecheckerboard="0"
     inkscape:deskcolor="#d1d1d1"
     showgrid="false"
     inkscape:zoom="0.2560102"
     inkscape:cx="-1171.8283"
     inkscape:cy="582.00806"
     inkscape:window-width="1920"
     inkscape:window-height="1009"
     inkscape:window-x="-8"
     inkscape:window-y="-8"
     inkscape:window-maximized="1"
     inkscape:current-layer="svg39" />
  <defs
     id="defs7">
    <linearGradient
       id="a"
       x1="351.79001"
       x2="352.31"
       gradientUnits="userSpaceOnUse">
      <stop
         stop-color="#ffb142"
         offset="0"
         id="stop2" />
      <stop
         stop-color="#c87600"
         offset="1"
         id="stop4" />
    </linearGradient>
  </defs>
  <g
     transform="matrix(2.7713494,0,0,3.0464419,-472.88217,-1115.6225)"
     id="g37">
    <path
       d="m 516.84,534.27 a 165.565,165.565 0 1 1 -331.13,0 165.565,165.565 0 1 1 331.13,0 z"
       fill="#1c1c1c"
       stroke="#080808"
       stroke-linecap="round"
       stroke-width="5"
       id="path13" />
    <path
       d="m 317.28,424.09 c -22.935,0 -41.562,21.434 -41.562,47.844 0,26.41 18.628,47.844 41.562,47.844 13.478,0 25.439,-7.4105 33.031,-18.875 7.5922,11.473 19.579,18.875 33.062,18.875 22.935,0 41.562,-21.434 41.562,-47.844 0,-26.41 -18.628,-47.844 -41.562,-47.844 -13.482,0 -25.47,7.4045 -33.062,18.875 -7.5928,-11.462 -19.555,-18.875 -33.031,-18.875 z"
       fill="#ffffff"
       stroke="#080808"
       stroke-linecap="round"
       stroke-width="5"
       id="path15" />
    <path
       transform="matrix(1.1333,0,0,1.1333,-41.339,-43.746)"
       d="m 418.63,583.05 a 70.821,70.821 0 1 1 -141.64,0 70.821,70.821 0 1 1 141.64,0 z"
       fill="#ffffff"
       stroke="#080808"
       stroke-linecap="round"
       stroke-width="4.4118"
       id="path17" />
    <path
       transform="translate(170.66,366.2)"
       d="m 339.66,122.03 c 0.33607,4.3048 0.53125,8.6406 0.53125,13.031 0,91.391 -74.202,165.56 -165.59,165.56 -75.42,0 -139.07,-50.513 -159.03,-119.53 6.6593,85.301 78.03,152.53 165.03,152.53 91.391,0 165.59,-74.171 165.59,-165.56 0,-15.971 -2.3048,-31.416 -6.5312,-46.031 z"
       fill-opacity="0.31373"
       id="path19" />
    <path
       d="m 352.3,506.61 c -14.479,0 -30.217,13.186 -29.588,21.514 0.629,8.328 25.81,43.029 31.476,43.029 5.666,0 27.699,-34.006 27.069,-43.723 -0.63,-9.717 -19.515,-21.514 -28.958,-20.82 z"
       fill-opacity="0.31373"
       fill-rule="evenodd"
       id="path21" />
    <path
       d="m 350.01,498.27 c -14.479,0 -30.217,11.961 -29.588,19.515 0.629,7.554 25.81,39.03 31.476,39.03 5.666,0 27.699,-30.847 27.069,-39.66 -0.63,-8.813 -19.515,-19.515 -28.958,-18.886 z"
       fill="url(#a)"
       fill-rule="evenodd"
       stroke="#080808"
       stroke-width="5"
       id="path23"
       style="fill:url(#a)" />
    <path
       transform="translate(2.4773,-7)"
       d="m 340.57,487.37 a 10.387,10.387 0 1 1 -20.774,0 10.387,10.387 0 1 1 20.774,0 z"
       stroke="#000000"
       stroke-linecap="round"
       stroke-width="5"
       id="path25" />
    <path
       transform="translate(39.66,-7)"
       d="m 340.57,487.37 a 10.387,10.387 0 1 1 -20.774,0 10.387,10.387 0 1 1 20.774,0 z"
       stroke="#000000"
       stroke-linecap="round"
       stroke-width="5"
       id="path27" />
    <path
       d="m 226.4,497.25 c 48.111,17.3 -14.163,94.143 37.819,161.19 9.6084,12.393 -57.868,2.0908 -81.723,-66.585 -23.198,-66.786 -1.1324,-107.54 43.904,-94.607 z"
       fill="#ffffff"
       fill-rule="evenodd"
       stroke="#000000"
       stroke-width="5"
       id="path29" />
    <path
       d="m 226.4,497.25 c 48.111,17.3 -42.588,102.12 37.819,161.19 22.626,16.622 -57.868,2.0908 -81.723,-66.585 -23.198,-66.786 -1.1324,-107.54 43.904,-94.607 z"
       fill="#1c1c1c"
       fill-rule="evenodd"
       stroke="#080808"
       stroke-width="5"
       id="path31" />
    <path
       d="m 484.36,497.25 c -48.111,17.3 14.163,94.143 -37.819,161.19 -9.6084,12.393 57.868,2.0908 81.723,-66.585 23.198,-66.786 1.1324,-107.54 -43.904,-94.607 z"
       fill="#ffffff"
       fill-rule="evenodd"
       stroke="#000000"
       stroke-width="5"
       id="path33" />
    <path
       d="m 484.36,497.25 c -48.111,17.3 42.588,102.12 -37.819,161.19 -22.626,16.622 57.868,2.0908 81.723,-66.585 23.198,-66.786 1.1324,-107.54 -43.904,-94.607 z"
       fill="#1c1c1c"
       fill-rule="evenodd"
       stroke="#080808"
       stroke-width="5"
       id="path35" />
  </g>
</svg>
