<?xml version="1.0" encoding="UTF-8" standalone="no"?>
<svg
   width="1024"
   height="1024"
   version="1.0"
   id="svg143"
   sodipodi:docname="Ball2.svg"
   inkscape:version="1.2 (dc2aedaf03, 2022-05-15)"
   inkscape:export-filename="Ball2.png"
   inkscape:export-xdpi="96"
   inkscape:export-ydpi="96"
   xmlns:inkscape="http://www.inkscape.org/namespaces/inkscape"
   xmlns:sodipodi="http://sodipodi.sourceforge.net/DTD/sodipodi-0.dtd"
   xmlns="http://www.w3.org/2000/svg"
   xmlns:svg="http://www.w3.org/2000/svg">
  <sodipodi:namedview
     id="namedview145"
     pagecolor="#ffffff"
     bordercolor="#666666"
     borderopacity="1.0"
     inkscape:showpageshadow="2"
     inkscape:pageopacity="0.0"
     inkscape:pagecheckerboard="0"
     inkscape:deskcolor="#d1d1d1"
     showgrid="false"
     inkscape:zoom="0.66491228"
     inkscape:cx="339.89446"
     inkscape:cy="508.33773"
     inkscape:window-width="1920"
     inkscape:window-height="1009"
     inkscape:window-x="-8"
     inkscape:window-y="-8"
     inkscape:window-maximized="1"
     inkscape:current-layer="svg143" />
  <defs
     id="defs59">
    <filter
       id="b"
       width="2.2072425"
       height="2.0998019"
       x="-0.60362127"
       y="-0.54990094">
      <feGaussianBlur
         stdDeviation="13.281697"
         id="feGaussianBlur2" />
    </filter>
    <filter
       id="c"
       width="1.4973732"
       height="1.4159991"
       x="-0.24868658"
       y="-0.20799954">
      <feGaussianBlur
         stdDeviation="5.3830739"
         id="feGaussianBlur5" />
    </filter>
    <filter
       id="d"
       width="1.5494455"
       height="1.6318072"
       x="-0.27472276"
       y="-0.31590362">
      <feGaussianBlur
         stdDeviation="6.3019835"
         id="feGaussianBlur8" />
    </filter>
    <filter
       id="e"
       width="1.7254881"
       height="1.4441982"
       x="-0.36274406"
       y="-0.22209912">
      <feGaussianBlur
         stdDeviation="6.0682695"
         id="feGaussianBlur11" />
    </filter>
    <filter
       id="f"
       width="2.1004272"
       height="1.6085148"
       x="-0.55021358"
       y="-0.3042574">
      <feGaussianBlur
         stdDeviation="6.8704245"
         id="feGaussianBlur14" />
    </filter>
    <filter
       id="g"
       width="1.5883985"
       height="1.1851193"
       x="-0.29419925"
       y="-0.092559665">
      <feGaussianBlur
         stdDeviation="2.8215359"
         id="feGaussianBlur17" />
    </filter>
    <filter
       id="h"
       width="1.3501379"
       height="1.8867429"
       x="-0.17506897"
       y="-0.44337145">
      <feGaussianBlur
         stdDeviation="5.175851"
         id="feGaussianBlur20" />
    </filter>
    <filter
       id="i"
       width="1.7643944"
       height="1.2417667"
       x="-0.38219719"
       y="-0.12088334">
      <feGaussianBlur
         stdDeviation="3.6867729"
         id="feGaussianBlur23" />
    </filter>
    <filter
       id="j"
       width="1.645417"
       height="1.5395514"
       x="-0.32270848"
       y="-0.26977569">
      <feGaussianBlur
         stdDeviation="8.0592475"
         id="feGaussianBlur26" />
    </filter>
    <filter
       id="k"
       width="1.5339565"
       height="1.5959785"
       x="-0.26697826"
       y="-0.29798924">
      <feGaussianBlur
         stdDeviation="3.0299453"
         id="feGaussianBlur29" />
    </filter>
    <filter
       id="l"
       width="1.0789949"
       height="1.4567374"
       x="-0.039497456"
       y="-0.22836872">
      <feGaussianBlur
         stdDeviation=".45122379"
         id="feGaussianBlur32" />
    </filter>
    <filter
       id="m"
       width="1.7766509"
       height="2.1607081"
       x="-0.38832546"
       y="-0.58035404">
      <feGaussianBlur
         stdDeviation="6.0923615"
         id="feGaussianBlur35" />
    </filter>
    <filter
       id="n"
       width="1.3402258"
       height="1.8007623"
       x="-0.17011292"
       y="-0.40038113">
      <feGaussianBlur
         stdDeviation="4.244671"
         id="feGaussianBlur38" />
    </filter>
    <filter
       id="o"
       width="1.4163676"
       height="1.1280966"
       x="-0.20818379"
       y="-0.064048291">
      <feGaussianBlur
         stdDeviation="2.676807"
         id="feGaussianBlur41" />
    </filter>
    <filter
       id="a"
       width="2.1419917"
       height="1.4394738"
       x="-0.57099585"
       y="-0.21973691">
      <feGaussianBlur
         stdDeviation="17.474569"
         id="feGaussianBlur44" />
    </filter>
    <filter
       id="q"
       x="-0.062347474"
       y="-0.085811365"
       width="1.1246949"
       height="1.1716227">
      <feGaussianBlur
         stdDeviation="1.7740045"
         id="feGaussianBlur47" />
    </filter>
    <filter
       id="s"
       x="-0.047257317"
       y="-0.068635792"
       width="1.1160752"
       height="1.1227154">
      <feGaussianBlur
         stdDeviation=".19025942"
         id="feGaussianBlur50" />
    </filter>
    <filter
       id="p"
       x="-0.060852312"
       y="-0.067826164"
       width="1.1217046"
       height="1.1356523">
      <feGaussianBlur
         stdDeviation="5.3545049"
         id="feGaussianBlur53" />
    </filter>
    <filter
       id="r"
       width="1.3558135"
       height="1.4278371"
       x="-0.16712651"
       y="-0.22119664">
      <feGaussianBlur
         stdDeviation=".98934896"
         id="feGaussianBlur56" />
    </filter>
  </defs>
  <g
     id="g469"
     transform="matrix(1.1080074,0,0,1.1087673,-64.744957,-32.351974)">
    <g
       id="g607"
       transform="matrix(4.0386298,0,0,4.0386298,-26.904187,-42.039332)">
      <path
         fill="#aea59d"
         d="m 245.16476,128.18247 a 108.43406,107.4253 0 1 1 -216.868122,0 108.43406,107.4253 0 1 1 216.868122,0 z"
         id="path63" />
      <path
         fill="#f3e5d8"
         fill-rule="evenodd"
         d="m 97.764513,82.555725 c 0,0 15.399547,-25.696669 37.269377,-31.945188 3.07419,-0.878337 34.53032,5.137281 42.7955,13.744521 8.6009,8.956864 17.60981,40.094502 15.77069,42.159562 -31.18503,35.01614 -37.26939,32.61071 -41.92806,32.61071 -4.65868,0 -42.59359,-14.64155 -42.59359,-14.64155 0,0 -11.979442,-41.26253 -11.313917,-41.928055 z"
         color="#000000"
         enable-background="accumulate"
         overflow="visible"
         style="marker:none"
         id="path65" />
      <path
         fill="#211d12"
         fill-rule="evenodd"
         d="m 53.839877,90.542023 c 0,0 3.327624,-7.986298 14.641546,-9.317348 11.31392,-1.33105 29.28309,-5.989722 29.948615,2.6621 0.665525,8.651822 9.317342,37.934915 9.317342,37.934915 0,0 3.99315,3.32762 -5.98971,9.98287 -9.98288,6.65525 -22.627851,19.30022 -25.955475,22.62784 -3.327623,3.32762 -3.327623,1.99657 -8.651822,-0.66552 -2.987727,-1.49388 -11.670759,-7.36322 -17.661767,-14.24577 -4.685105,-5.38228 -7.46536,-10.09162 -6.297125,-22.35809 0.930665,-9.772 3.924439,-15.29951 5.665187,-19.221666 3.238531,-7.29687 5.416068,-7.399331 4.983209,-7.399331 z"
         color="#000000"
         enable-background="accumulate"
         overflow="visible"
         style="marker:none"
         id="path67" />
      <path
         fill="#ffffff"
         fill-rule="evenodd"
         d="m 41.468254,122.14286 c 0,0 3.015873,-45.992066 10.555556,-48.253971 7.539682,-2.261905 29.404761,-4.52381 29.404761,0 0,4.523809 13.571429,39.960321 12.817461,45.238091 -0.753969,5.27778 -45.238095,18.09524 -52.777778,3.01588 z"
         color="#000000"
         enable-background="accumulate"
         filter="url(#b)"
         opacity="0.290816"
         overflow="visible"
         style="marker:none"
         transform="matrix(0.73146,0,0,0.8827,35.48681,17.334297)"
         id="path69" />
      <path
         fill="#ffffff"
         fill-rule="evenodd"
         d="m 107.81746,110.83333 c 0,0 -15.833333,-39.960314 9.04762,-54.285711 24.88095,-14.325397 53.53174,-9.801588 27.89682,20.357143 -25.63492,30.158728 -32.42063,26.388888 -36.94444,33.928568 z"
         color="#000000"
         enable-background="accumulate"
         filter="url(#c)"
         overflow="visible"
         style="marker:none"
         transform="matrix(0.8452,-0.25454,0.25454,0.8452,5.753397,54.44819)"
         id="path71" />
      <path
         fill="#f5e7e4"
         fill-rule="evenodd"
         d="m 55.836452,82.555725 c 0,0 -5.989723,-15.30707 -1.331049,-21.296792 4.658672,-5.989724 20.631268,-33.941764 47.252267,-35.938338 26.62098,-1.996574 25.28993,1.33105 25.28993,1.33105 0,0 9.98288,22.627842 5.32421,23.958892 -4.65868,1.331048 -35.272822,27.95204 -35.938347,29.283089 -0.665525,1.331049 -9.317346,-4.658673 -40.597011,2.662099 z"
         color="#000000"
         enable-background="accumulate"
         overflow="visible"
         style="marker:none"
         id="path73" />
      <path
         fill="#ffffff"
         fill-rule="evenodd"
         d="m 104.04762,17.34127 c 0,0 -54.285715,15.079365 -55.039683,41.468254 C 48.253968,85.198413 104.80159,21.865079 104.04762,17.34127 Z"
         color="#000000"
         enable-background="accumulate"
         filter="url(#d)"
         overflow="visible"
         style="marker:none"
         transform="matrix(0.8827,0,0,0.8827,21.229164,17.334297)"
         id="path75" />
      <path
         fill="#e7d9d0"
         fill-rule="evenodd"
         d="m 107.74738,125.81484 c 0,0 -31.279661,26.62099 -34.607283,32.61071 -3.327624,5.98972 10.648396,41.26253 10.648396,41.26253 0,0 31.945187,19.96575 49.248837,16.63813 17.30363,-3.32762 34.60729,-28.61757 34.60729,-28.61757 0,0 -7.9863,-43.2591 -12.64497,-46.58673 -4.65869,-3.32763 -44.59017,-13.3105 -47.25227,-15.30707 z"
         color="#000000"
         enable-background="accumulate"
         overflow="visible"
         style="marker:none"
         id="path77" />
      <path
         fill="#fbf8f8"
         fill-rule="evenodd"
         d="M 88.968254,201.30952 C 85.198413,199.80159 59.563492,156.8254 103.29365,138.73016 147.02381,120.63492 79.920635,190 88.968254,201.30952 Z"
         color="#000000"
         enable-background="accumulate"
         filter="url(#e)"
         overflow="visible"
         style="marker:none"
         transform="matrix(0.8827,0,0,0.8827,21.229164,17.334297)"
         id="path79" />
      <path
         fill="#e0d2c5"
         fill-rule="evenodd"
         d="m 42.525957,131.13903 c 0,0 16.118543,20.7042 30.61414,27.95204 1.331048,0.66554 -1.33105,0 -0.665525,9.31734 0.665525,9.31735 12.644969,34.6073 12.644969,34.6073 0,0 -17.303642,14.64154 -19.300218,14.64154 -1.996574,0 -24.624416,-9.98287 -37.269387,-49.24884 -4.275662,-13.27705 -3.548591,-15.77062 -1.542625,-21.20973 3.92654,-10.64667 14.637667,-15.61915 15.518646,-16.05965 z"
         color="#000000"
         enable-background="accumulate"
         overflow="visible"
         style="marker:none"
         id="path81" />
      <path
         fill="#f9f6f5"
         fill-rule="evenodd"
         d="m 27.142857,142.5 c 0,0 18.095238,16.5873 24.126984,19.60317 6.031746,3.01588 -9.047619,9.80159 -3.769841,23.37302 5.277778,13.57143 -21.865079,-20.35714 -24.126984,-41.46825 -2.261905,-21.11111 2.261905,-0.75397 3.769841,-1.50794 z"
         color="#000000"
         enable-background="accumulate"
         filter="url(#f)"
         overflow="visible"
         style="marker:none"
         transform="matrix(0.8827,0,0,0.8827,21.229164,17.334297)"
         id="path83" />
      <path
         fill="#252618"
         fill-rule="evenodd"
         d="m 22.560213,139.12533 c 0,0 0,6.65524 2.662099,7.32077 2.662099,0.66553 -0.665524,9.31735 0,14.64154 0.665525,5.32421 -3.327623,-15.97259 -2.662099,-21.96231 z"
         color="#000000"
         enable-background="accumulate"
         overflow="visible"
         style="marker:none"
         id="path85" />
      <path
         fill="#e2d4c9"
         fill-rule="evenodd"
         d="m 52.508829,63.255507 c 0,0 0.665524,19.965743 1.996574,23.293366 1.331049,3.327625 -13.310496,21.962317 -13.310496,41.928067 0,19.96574 -15.972595,18.63469 -15.972595,18.63469 l -1.996574,-5.3242 c 0,0 -4.658673,-50.579883 29.283091,-78.531923 z"
         color="#000000"
         enable-background="accumulate"
         overflow="visible"
         style="marker:none"
         id="path87" />
      <path
         fill="#f7f2ef"
         fill-rule="evenodd"
         d="m 33.174603,61.071429 c 0,3.769841 1.507937,17.341269 1.507937,17.341269 0,0 -15.833334,34.682542 -13.571429,49.761902 2.261905,15.07937 -29.4047618,5.27778 12.063492,-67.103171 z"
         color="#000000"
         enable-background="accumulate"
         filter="url(#g)"
         overflow="visible"
         style="marker:none"
         transform="matrix(0.8827,0,0,0.8827,21.229164,17.334297)"
         id="path89" />
      <path
         fill="#2c2a1e"
         fill-rule="evenodd"
         d="m 178.29301,26.651644 c 0,0 -27.86947,-7.89532 -45.9212,-1.331049 -7.32078,2.662097 1.99656,23.958891 1.99656,23.958891 -0.12786,-0.149165 24.77669,2.699891 47.9178,13.976021 1.79483,0.874579 12.64496,-10.648397 19.30021,-14.641546 5.70682,-3.424094 -18.63469,-18.634693 -23.29337,-21.962317 z"
         color="#000000"
         enable-background="accumulate"
         overflow="visible"
         style="marker:none"
         id="path91" />
      <path
         fill="#555249"
         fill-rule="evenodd"
         d="m 128.92857,17.34127 c 0,0 39.05284,-28.177127 70.11905,15.833333 9.04762,12.817461 -58.05556,-15.833333 -70.11905,-15.833333 z"
         color="#000000"
         enable-background="accumulate"
         filter="url(#h)"
         overflow="visible"
         style="marker:none"
         transform="matrix(0.8827,0,0,0.8827,21.229164,17.334297)"
         id="path93" />
      <path
         fill="#b1a49c"
         fill-rule="evenodd"
         d="m 184.94825,68.579705 c 0,0 -7.98629,-1.33105 4.65868,-9.982872 12.64498,-8.651822 13.97602,-10.648396 25.95546,-2.662098 11.97945,7.986297 30.86394,34.523394 27.28652,64.555905 -0.49786,4.1796 -17.96916,13.97602 -17.96916,13.97602 0,0 -4.68733,-3.36464 -11.64612,-9.68299 -7.66651,-6.96096 -16.47444,-14.2759 -19.63355,-14.27591 -0.66552,0 3.99315,-15.307064 -8.65183,-41.928055 z"
         color="#000000"
         enable-background="accumulate"
         overflow="visible"
         style="marker:none"
         id="path95" />
      <path
         fill="#bfb2aa"
         fill-rule="evenodd"
         d="m 208.84921,109.3254 c 0,0 -21.86508,-33.928575 -16.58731,-55.039686 5.27778,-21.111111 27.89683,-18.849206 19.60318,1.507937 -8.29365,20.357143 12.06349,70.119049 -3.01587,53.531749 z"
         color="#000000"
         enable-background="accumulate"
         filter="url(#i)"
         overflow="visible"
         style="marker:none"
         transform="matrix(0.8827,0,0,0.8827,21.229164,17.334297)"
         id="path97" />
      <path
         fill="#1d190e"
         fill-rule="evenodd"
         d="m 208.90715,183.04997 c 0,0 -33.27624,7.98629 -39.93149,3.32762 -6.65525,-4.65867 -3.42791,-16.278 -11.97944,-43.92464 -1.536,-4.96578 18.88434,-13.87628 33.94175,-31.94518 3.32763,-3.99315 33.27625,23.95889 33.27625,23.95889 0,0 0.66553,43.2591 -15.30707,48.58331 z"
         color="#000000"
         enable-background="accumulate"
         overflow="visible"
         style="marker:none"
         id="path99" />
      <path
         fill="#35362e"
         fill-rule="evenodd"
         d="m 171.15079,150.79365 c 0,0 -17.34127,28.65079 -0.75396,36.19048 16.5873,7.53968 58.80952,-13.57143 52.0238,-42.97619 -6.78571,-29.40477 -21.86507,-27.14286 -21.86507,-27.14286 0,0 24.12698,15.83333 12.06349,35.43651 C 200.55556,171.90476 169.64286,190 171.15079,150.79365 Z"
         color="#000000"
         enable-background="accumulate"
         filter="url(#j)"
         overflow="visible"
         style="marker:none"
         transform="matrix(0.8827,0,0,0.8827,21.229164,17.334297)"
         id="path101" />
      <path
         fill="#504e45"
         fill-rule="evenodd"
         d="m 46.519105,67.248655 c 0,0 5.324198,-7.986296 9.982871,-7.986296 4.658674,0 -1.996573,-1.996576 12.644971,-16.63812 C 83.788493,27.982693 47.850155,60.593408 46.519105,67.248655 Z"
         color="#000000"
         enable-background="accumulate"
         overflow="visible"
         style="marker:none"
         id="path103" />
      <path
         fill="#e8e7e6"
         fill-rule="evenodd"
         d="m 128.37865,25.986119 c 0,0 -19.30022,-1.996574 -27.95204,-1.331049 -8.65182,0.665525 44.59025,-12.569699 67.21801,-1.331049 0.59606,0.296045 -33.27625,1.331049 -39.26597,2.662098 z"
         color="#000000"
         enable-background="accumulate"
         overflow="visible"
         style="marker:none"
         id="path105" />
      <path
         fill="#e8e7e6"
         fill-rule="evenodd"
         d="m 128.37865,25.986119 c 0,0 -19.30022,-1.996574 -27.95204,-1.331049 -8.65182,0.665525 44.59025,-12.569699 67.21801,-1.331049 0.59606,0.296045 -33.27625,1.331049 -39.26597,2.662098 z"
         color="#000000"
         enable-background="accumulate"
         overflow="visible"
         style="marker:none"
         id="path107" />
      <path
         fill="#fffbf8"
         fill-rule="evenodd"
         d="m 116.3992,23.324021 c 0,0 14.64155,1.996574 23.29338,0 8.65182,-1.996575 -21.96232,-0.665526 -23.29338,0 z"
         color="#000000"
         enable-background="accumulate"
         overflow="visible"
         style="marker:none"
         id="path109" />
      <path
         fill="#3b3b33"
         fill-rule="evenodd"
         d="m 75.136671,226.30907 c 0,0 -9.982872,-5.32419 -2.662099,-13.31048 7.320771,-7.98631 15.307069,-11.31393 19.965743,-5.98973 4.658673,5.32419 34.607285,11.97945 38.600435,10.64839 3.99314,-1.33104 7.9863,21.96232 7.9863,21.96232 0,0 -13.97602,5.98972 -21.29679,3.99315 -7.32078,-1.99657 -28.617569,-3.99315 -42.593589,-17.30365 z"
         color="#000000"
         enable-background="accumulate"
         overflow="visible"
         style="marker:none"
         id="path111" />
      <path
         fill="#6b665f"
         fill-rule="evenodd"
         d="m 82.936508,248.80952 c 0,0 -36.190476,-21.11111 -24.880952,-19.60317 2.862144,0.38162 3.800406,-6.41977 6.935313,-4.41567 3.665438,2.34326 3.826808,7.44184 7.097894,11.79933 4.985896,6.64182 12.207976,12.55957 10.847745,12.21951 z"
         color="#000000"
         enable-background="accumulate"
         filter="url(#k)"
         overflow="visible"
         style="marker:none"
         transform="matrix(0.91878,-0.34218,0.60314,1.61946,-119.33471,-130.89547)"
         id="path113" />
      <path
         fill="#a6a199"
         fill-rule="evenodd"
         d="m 123.71998,244.27824 c 0,0 26.62098,3.99315 43.25912,-1.99657 16.6381,-5.98972 -19.30023,1.99657 -27.28652,-1.99657 -7.98631,-3.99315 5.3242,0 -15.9726,3.99314 z"
         color="#000000"
         enable-background="accumulate"
         overflow="visible"
         style="marker:none"
         id="path115" />
      <path
         fill="#c4b8aa"
         fill-rule="evenodd"
         d="m 125.9127,257.85714 c 0,0 24.12698,-3.01587 27.14286,-3.76984 3.01587,-0.75397 -19.60318,-3.01587 -27.14286,3.76984 z"
         color="#000000"
         enable-background="accumulate"
         filter="url(#l)"
         overflow="visible"
         style="marker:none"
         transform="matrix(0.8827,0,0,0.8827,21.229164,17.334297)"
         id="path117" />
      <path
         fill="#beaea0"
         fill-rule="evenodd"
         d="m 141.68915,212.99859 c 0,0 -7.9863,2.66209 -7.9863,7.98629 0,5.32419 3.99314,8.65182 4.65868,16.63812 0.66552,7.98629 38.60043,2.6621 45.25567,-1.99657 6.65526,-4.65868 35.65745,-17.37708 31.27967,-39.26597 -3.32762,-16.63811 -11.97945,-11.31392 -11.97945,-11.31392 0,0 -25.95546,4.65867 -33.27623,1.33105 -7.32078,-3.32762 -0.66553,15.30707 -27.95204,26.621 z"
         color="#000000"
         enable-background="accumulate"
         overflow="visible"
         style="marker:none"
         id="path119" />
      <path
         fill="#c5b8b1"
         fill-rule="evenodd"
         d="m 161.34921,218.65079 c 0,0 34.68254,3.76984 16.5873,16.58731 -18.09524,12.81746 -52.77778,14.32539 -16.5873,-16.58731 z"
         color="#000000"
         enable-background="accumulate"
         filter="url(#m)"
         overflow="visible"
         style="marker:none"
         transform="matrix(0.8827,0,0,0.8827,21.229164,17.334297)"
         id="path121" />
      <path
         fill="#a69687"
         fill-rule="evenodd"
         d="m 152.30159,247.30159 c 0,0 49.7619,-15.83334 58.80952,-21.86508 9.04762,-6.03175 -41.46825,36.19047 -58.80952,21.86508 z"
         color="#000000"
         enable-background="accumulate"
         filter="url(#n)"
         overflow="visible"
         style="marker:none"
         transform="matrix(0.8827,0,0,0.8827,21.229164,17.334297)"
         id="path123" />
      <path
         fill="#a19589"
         fill-rule="evenodd"
         d="m 243.51444,121.15616 c 0,0 -13.97602,15.9726 -17.96917,13.97602 -3.99316,-1.99657 1.54466,38.30748 -15.97259,47.91779 -1.84514,1.01227 5.98971,16.63811 5.32419,24.62441 -0.66552,7.9863 11.31392,-5.3242 11.31392,-5.3242 0,0 35.27282,-46.58673 17.30365,-81.19402 z"
         color="#000000"
         enable-background="accumulate"
         overflow="visible"
         style="marker:none"
         id="path125" />
      <path
         fill="#a59f9d"
         fill-rule="evenodd"
         d="m 250.31746,117.61905 c 0,0 7.53962,43.97968 -27.14286,100.27778 -0.79092,1.28386 43.73016,-43.73016 27.14286,-100.27778 z"
         color="#000000"
         enable-background="accumulate"
         filter="url(#o)"
         overflow="visible"
         style="marker:none"
         transform="matrix(0.8827,0,0,0.8827,21.229164,17.334297)"
         id="path127" />
      <path
         fill="#2e2e25"
         fill-rule="evenodd"
         d="m 238.19024,82.555725 c 0,2.662099 9.31734,30.614145 3.99315,37.934915 -5.32421,7.32077 2.78997,1.04908 5.32419,8.65183 0.66553,1.99657 7.32078,2.66209 -9.31734,-46.586745 z"
         color="#000000"
         enable-background="accumulate"
         overflow="visible"
         style="marker:none"
         id="path129" />
      <path
         fill="#aea39b"
         fill-rule="evenodd"
         d="m 188.94141,32.641367 c 0,0 15.30707,13.310496 14.64154,16.63812 -0.66553,3.327623 10.6484,3.327623 18.63469,11.313921 7.9863,7.986297 -13.31049,-17.969169 -33.27623,-27.952041 z"
         color="#000000"
         enable-background="accumulate"
         overflow="visible"
         style="marker:none"
         id="path131" />
      <path
         d="m 109.29823,236.87145 c -9.06272,-1.65599 -22.091321,-6.30256 -27.22013,-9.7079 -2.343762,-1.55617 -6.548289,-4.94667 -9.343392,-7.53444 -6.811564,-6.30631 -6.803993,-7.7417 0.07214,-13.67679 2.834783,-2.44683 5.836339,-5.29314 6.670126,-6.32513 0.833787,-1.032 2.559001,-2.41573 3.833809,-3.07496 2.083663,-1.0775 2.513713,-1.05007 4.256671,0.2715 6.85323,5.19639 28.860736,12.82834 38.988816,13.52088 l 3.23876,0.22146 2.73983,8.98654 c 1.5069,4.94259 3.14169,9.47073 3.63285,10.06255 1.12645,1.3573 0.25544,4.23143 -1.56691,5.17039 -5.01659,2.58479 -17.11425,3.5821 -25.30257,2.0859 z m 18.96568,-3.24903 c 2.68433,-0.69917 5.0146,-1.40524 5.17839,-1.56902 0.16379,-0.16379 -0.0969,-0.98335 -0.57932,-1.82126 -0.48241,-0.8379 -1.95931,-4.86335 -3.282,-8.94544 l -2.40489,-7.42197 -5.22794,-0.9011 c -12.77977,-2.20276 -31.230445,-8.71142 -35.575706,-12.54969 -1.381379,-1.22021 -1.696513,-1.07926 -4.535652,2.0286 -1.678121,1.83695 -4.813847,4.71939 -6.968282,6.40543 -2.154434,1.68604 -3.917153,3.38187 -3.917153,3.76851 0,1.39331 8.291806,9.73657 12.551743,12.62965 10.856626,7.37311 32.82728,11.48458 44.76081,8.37629 z m 76.26824,-24.96668 c 1.3442,-2.18459 3.38125,-4.4736 4.52679,-5.08667 1.14553,-0.61307 1.93,-1.26747 1.74326,-1.45422 -0.70347,-0.70346 -4.64154,2.54147 -6.25745,5.15607 -2.84585,4.60466 -4.43554,4.27305 -2.05319,-0.4283 2.31992,-4.57813 7.57421,-8.15809 9.35701,-6.37529 0.51974,0.51973 0.94498,1.32386 0.94498,1.78695 0,0.9772 -9.12021,10.37345 -10.0687,10.37345 -0.35018,0 0.46311,-1.78739 1.8073,-3.97199 z m -43.48866,-23.72106 c -0.45821,-0.49031 -1.81535,-4.94349 -3.01588,-9.89597 -1.20053,-4.95247 -2.59137,-10.67443 -3.09076,-12.71548 -0.49938,-2.04104 -1.8055,-6.49422 -2.90247,-9.89596 -1.09697,-3.40174 -2.34078,-7.27241 -2.76403,-8.60148 -0.64339,-2.02033 -0.42658,-2.86615 1.3225,-5.15933 1.15064,-1.50855 3.89763,-4.13211 6.10445,-5.83014 4.72044,-3.63212 14.08207,-11.74762 21.04803,-18.24631 2.72139,-2.53883 5.30235,-4.61986 5.73547,-4.6245 0.43311,-0.005 1.01274,-0.93618 1.28804,-2.07009 l 0.50057,-2.06166 0.57939,2.25282 c 0.35291,1.3722 1.62239,2.78888 3.24761,3.62417 4.25404,2.18638 14.24062,9.95834 21.05018,16.3821 l 6.27601,5.92045 -0.20445,6.52683 c -0.2467,7.87584 -2.33313,16.43943 -6.57109,26.97055 -5.66465,14.07643 -6.33971,14.59644 -22.83043,17.58654 -7.47342,1.35509 -24.45496,1.24799 -25.77314,-0.16254 z m 22.06216,-3.19491 c 10.74882,-1.57474 16.23952,-2.8569 17.17621,-4.01087 3.12166,-3.84583 6.17552,-11.49715 10.07339,-25.23849 2.66951,-9.41091 3.08166,-15.27089 1.25729,-17.87556 -1.48341,-2.11786 -14.86448,-12.97009 -21.70008,-17.59905 l -5.15081,-3.48806 -5.15749,5.38152 c -7.03049,7.33587 -12.7755,13.76361 -14.29508,15.9939 -0.69533,1.02052 -1.69431,1.85549 -2.21997,1.85549 -1.35941,0 -8.8467,7.5434 -8.8467,8.913 0,0.62738 0.83439,2.31128 1.85421,3.74199 1.01982,1.43071 1.90929,3.52904 1.97661,4.66296 0.24181,4.07322 1.1647,10.3547 1.87802,12.78229 0.39982,1.36069 1.18349,5.33015 1.74149,8.82102 0.9949,6.22425 1.06427,6.35331 3.58558,6.6715 5.31336,0.67055 10.22589,0.502 17.82733,-0.61164 z M 29.264101,164.41222 c -1.836405,-4.39513 -3.999643,-20.23107 -2.912178,-21.31854 0.639888,-0.63988 0.892248,-0.48197 0.892248,0.55836 0,0.85431 0.376884,1.21766 0.916864,0.88394 1.428353,-0.88277 2.364714,1.35065 2.271198,5.4173 l -0.08534,3.71098 -1.129527,-4.12332 -1.129527,-4.12332 0.40606,5.95164 c 0.223333,3.2734 0.928342,8.19046 1.566687,10.92679 1.300986,5.57683 0.992228,6.39717 -0.796488,2.11617 z m 1.807053,-3.91177 c -0.278194,-1.03851 -0.473597,-2.6304 -0.434229,-3.53753 0.03937,-0.90713 0.411238,-0.2017 0.826378,1.56763 0.803997,3.42664 0.460416,5.15257 -0.392149,1.9699 z m 33.293122,-8.73124 c -7.954419,-6.05754 -17.954234,-15.53307 -19.454765,-18.43478 -4.198376,-8.11876 5.138524,-41.226863 13.166627,-46.688087 4.242629,-2.886104 13.717355,-4.597373 25.834429,-4.666062 13.466382,-0.07634 13.274203,-0.220877 15.816753,11.895851 2.17481,10.364248 5.49913,23.509968 7.0741,27.973908 0.627,1.77709 0.95231,3.94875 0.72292,4.82593 -0.44422,1.69871 -4.92782,5.64045 -11.008403,9.67799 -2.041043,1.35527 -7.82446,6.45393 -12.852038,11.33038 -6.622334,6.42325 -9.6899,8.85534 -11.132962,8.82669 -1.106245,-0.022 -4.737398,-2.13033 -8.166661,-4.74182 z m 16.615205,-7.0102 c 4.236182,-4.21753 10.343114,-9.42908 13.570959,-11.58121 8.65248,-5.76895 9.48822,-6.84094 8.46577,-10.85899 -0.46051,-1.80974 -1.11865,-4.59873 -1.46253,-6.19778 -0.34389,-1.59904 -1.07913,-3.64009 -1.633878,-4.53565 -0.932524,-1.50544 -0.971323,-1.47275 -0.514218,0.43336 0.482628,2.01253 0.462975,2.02235 -0.824777,0.41233 -0.725552,-0.90713 -1.150705,-2.29838 -0.944783,-3.09167 0.205921,-0.79329 0.03814,-1.65016 -0.372842,-1.90416 -0.410985,-0.254 -0.747245,-1.2897 -0.747245,-2.30155 0,-1.01186 -0.510411,-3.86597 -1.134246,-6.34248 -0.623836,-2.476511 -1.381041,-5.554897 -1.68268,-6.840859 -0.301638,-1.285962 -1.515361,-3.23423 -2.697161,-4.329485 -1.1818,-1.095256 -1.753791,-1.991373 -1.271091,-1.991373 2.084866,0 3.750017,1.244136 4.856033,3.628241 l 1.186103,2.556738 -0.498279,-2.473992 c -0.837256,-4.157036 -2.919379,-4.955528 -11.953301,-4.584079 -4.856615,0.19969 -15.861927,2.593205 -19.969826,4.343181 -3.116152,1.327489 -4.359949,2.49919 -6.259601,5.89677 -5.174894,9.255438 -9.188296,23.041668 -9.216801,31.660168 -0.01389,4.20047 0.126984,4.46495 4.727498,8.87553 8.512888,8.16142 18.69402,16.89522 19.695022,16.89522 0.538849,0 4.445692,-3.45072 8.681874,-7.66826 z m 10.588473,-12.04688 c 0,-1.06032 8.211833,-7.80847 8.793856,-7.22643 0.97953,0.97952 -0.520025,2.89111 -4.234364,5.39789 -4.134208,2.79014 -4.559492,2.9607 -4.559492,1.82854 z m 7.92021,-25.41803 c -0.27403,-0.27403 -0.468938,0.21304 -0.43313,1.08237 0.03957,0.96069 0.23498,1.1561 0.498234,0.49824 0.238222,-0.5953 0.208924,-1.30658 -0.0651,-1.58061 z m -0.77674,-3.72817 c -0.228772,-0.56695 -0.415949,-0.10308 -0.415949,1.03083 0,1.13391 0.187177,1.59779 0.415949,1.03083 0.228772,-0.56695 0.228772,-1.4947 0,-2.06166 z m -0.872588,-3.693805 c -0.274029,-0.274028 -0.468938,0.213035 -0.43313,1.082375 0.03957,0.96068 0.23498,1.15609 0.498235,0.49823 0.238221,-0.5953 0.208923,-1.30658 -0.06511,-1.580605 z m -0.824664,-4.123319 c -0.274029,-0.274029 -0.468938,0.213038 -0.43313,1.082371 0.03957,0.960686 0.234981,1.156096 0.498235,0.498235 0.238221,-0.595305 0.208923,-1.306577 -0.06511,-1.580606 z M 96.189508,92.45015 c -0.274029,-0.274028 -0.468938,0.213039 -0.43313,1.082371 0.03957,0.960687 0.234981,1.156097 0.498235,0.498235 0.238221,-0.595304 0.208923,-1.306577 -0.06511,-1.580606 z m 136.673272,31.73238 c -1.29951,-2.55655 -1.90483,-5.62448 -2.23727,-11.33913 -0.25066,-4.30887 -0.71286,-8.72731 -1.02712,-9.81875 -0.37912,-1.31676 -0.27523,-1.80143 0.30878,-1.44049 0.48408,0.29918 1.30015,3.23323 1.81348,6.5201 1.70961,10.94655 2.32372,14.2011 3.18951,16.90293 1.21441,3.78979 0.0623,3.32572 -2.04738,-0.82466 z m 2.77201,-0.76794 c -0.64384,-1.54094 -1.43607,-5.38481 -1.7605,-8.54195 -0.32443,-3.15712 -1.15393,-8.2713 -1.84333,-11.36483 -1.3831,-6.206363 -0.93704,-8.146604 0.86889,-3.779484 1.2128,2.932814 4.89863,25.494904 4.26796,26.125564 -0.19932,0.19932 -0.88917,-0.89836 -1.53302,-2.4393 z M 213.49958,66.456057 c -0.69219,-0.566956 -2.64459,-2.770696 -4.33866,-4.897201 -18.75163,-17.495463 -19.01965,-19.051468 2.95125,2.010878 3.31437,3.923572 3.74337,4.816032 1.38741,2.886323 z"
         filter="url(#p)"
         opacity="0.627551"
         transform="matrix(1.07037,0,0,1.07505,-5.2841088,-10.995271)"
         id="path133" />
      <path
         fill="#ffffff"
         fill-rule="evenodd"
         d="m 127.99384,57.582368 c 0,0 10.44139,5.899579 20.58419,7.915835 10.89347,2.165481 21.61793,0.553229 23.9851,3.512186 4.57121,5.714011 18.28483,-9.142417 22.85604,-11.428021 4.57121,-2.285604 -10.28522,5.71401 -14.85643,13.713626 -4.57121,7.999615 7.99962,33.141266 4.57121,35.426866 -3.42841,2.28561 5.71401,-45.712086 -57.14011,-49.140492 z"
         color="#000000"
         enable-background="accumulate"
         filter="url(#q)"
         opacity="0.454082"
         overflow="visible"
         style="marker:none"
         transform="matrix(1.07037,0,0,1.07037,-5.2841088,-9.8841888)"
         id="path135" />
      <path
         fill="#989898"
         fill-rule="evenodd"
         stroke="#ffffff"
         stroke-width="0.631313"
         d="m 30.855659,145.57813 12.570824,-12.57082 3.428406,2.28561 c 0,0 -14.856428,6.85681 -15.99923,10.28521 z"
         color="#000000"
         enable-background="accumulate"
         filter="url(#r)"
         overflow="visible"
         style="marker:none"
         transform="matrix(1.07037,0,0,1.07037,-5.2841088,-9.8841888)"
         id="path137" />
      <path
         fill="#191919"
         fill-rule="evenodd"
         stroke="#666666"
         stroke-width="0.631313"
         d="m 210.2756,145.57813 12.57082,-12.57082 3.42841,2.28561 c 0,0 -14.85643,6.85681 -15.99923,10.28521 z"
         color="#000000"
         enable-background="accumulate"
         filter="url(#s)"
         overflow="visible"
         style="marker:none"
         transform="matrix(0.15732,-0.31451,-1.19496,0.47742,365.25214,131.66379)"
         id="path139" />
      <path
         fill="#151515"
         d="m 111.20676,244.24255 c -9.59549,-1.77251 -23.389987,-6.74607 -28.820298,-10.39104 -2.481537,-1.66569 -6.93324,-5.29478 -9.892654,-8.06465 -7.211975,-6.75008 -7.203969,-8.28649 0.07638,-14.63924 3.001437,-2.619 6.179443,-5.66562 7.062241,-6.77023 0.88281,-1.10461 2.70944,-2.58571 4.059188,-3.29135 2.206152,-1.15332 2.661477,-1.12396 4.506903,0.29061 7.256106,5.56206 30.55734,13.73109 41.2808,14.47235 l 3.42916,0.23705 2.9009,9.61892 c 1.59548,5.29041 3.32637,10.1372 3.8464,10.77067 1.19268,1.45281 0.27046,4.5292 -1.65902,5.53423 -5.3115,2.76668 -18.12032,3.83417 -26.79,2.23268 z m 20.08059,-3.47766 c 2.84213,-0.74838 5.30939,-1.50413 5.48281,-1.67944 0.17341,-0.1753 -0.10261,-1.05254 -0.61337,-1.94941 -0.51077,-0.89686 -2.0745,-5.2056 -3.47494,-9.57495 l -2.54626,-7.94426 -5.53527,-0.96451 c -13.53105,-2.35777 -33.066364,-9.32443 -37.667063,-13.43282 -1.462586,-1.30607 -1.796253,-1.15519 -4.802293,2.17136 -1.776772,1.96623 -5.096826,5.05151 -7.377914,6.85618 -2.281078,1.80469 -4.147419,3.61986 -4.147419,4.03372 0,1.49134 8.779244,10.42172 13.289604,13.51839 11.494849,7.89196 34.757065,12.29277 47.392115,8.96574 z m 80.75174,-26.7236 c 1.42322,-2.33833 3.58003,-4.78841 4.79291,-5.44463 1.21287,-0.65621 2.04345,-1.35666 1.84574,-1.55654 -0.74483,-0.75297 -4.9144,2.7203 -6.62531,5.51889 -3.01315,4.9287 -4.69628,4.57375 -2.17388,-0.45842 2.4563,-4.9003 8.01946,-8.73218 9.90707,-6.82394 0.55029,0.55631 1.00053,1.41702 1.00053,1.9127 0,1.04597 -9.65635,11.10344 -10.6606,11.10344 -0.37077,0 0.49034,-1.91316 1.91354,-4.2515 z m -46.04518,-25.39033 c -0.48514,-0.5248 -1.92206,-5.29137 -3.19317,-10.59236 -1.27111,-5.30097 -2.7437,-11.42558 -3.27245,-13.61027 -0.52874,-2.18467 -1.91164,-6.95122 -3.0731,-10.59235 -1.16145,-3.64112 -2.47838,-7.78417 -2.92651,-9.20677 -0.68122,-2.16249 -0.45166,-3.06784 1.40024,-5.52239 1.21828,-1.6147 4.12675,-4.42289 6.46331,-6.24041 4.99793,-3.88771 14.9099,-12.57431 22.28535,-19.53031 2.88137,-2.7175 5.61406,-4.94497 6.07264,-4.94994 0.45857,-0.005 1.07228,-1.00204 1.36376,-2.21576 l 0.52999,-2.20674 0.61345,2.41135 c 0.37366,1.46877 1.71777,2.98514 3.43853,3.87921 4.50412,2.34024 15.07777,10.65912 22.28764,17.53493 l 6.64495,6.33706 -0.21648,6.98613 c -0.2612,8.43007 -2.47028,17.59628 -6.95737,28.86848 -5.99765,15.067 -6.71239,15.6236 -24.17254,18.82412 -7.91275,1.45046 -25.89257,1.33581 -27.28824,-0.17398 z m 23.35911,-3.41974 c 11.3807,-1.68555 17.19417,-3.05794 18.18592,-4.29312 3.30518,-4.11646 6.53856,-12.3062 10.66557,-27.01453 2.82645,-10.07315 3.26281,-16.34551 1.3312,-19.13347 -1.57062,-2.2669 -15.7383,-13.88281 -22.97574,-18.8375 l -5.4536,-3.73353 -5.46068,5.76022 c -7.44378,7.85211 -13.52652,14.73218 -15.13543,17.1194 -0.73621,1.09235 -1.79391,1.98606 -2.35047,1.98606 -1.43933,0 -9.36676,8.07424 -9.36676,9.54023 0,0.67152 0.88344,2.47392 1.96321,4.0053 1.07976,1.53139 2.02152,3.77739 2.09281,4.9911 0.25602,4.35985 1.23316,11.08336 1.98841,13.68179 0.42332,1.45645 1.25306,5.70523 1.84387,9.44176 1.05338,6.66225 1.12683,6.80039 3.79635,7.14097 5.62572,0.71774 10.82704,0.53733 18.87534,-0.65468 z M 26.467744,166.68432 c -1.944361,-4.70442 -4.234772,-21.65474 -3.083374,-22.81874 0.677502,-0.6849 0.944698,-0.51588 0.944698,0.59766 0,0.91442 0.399045,1.30334 0.970762,0.94614 1.512327,-0.94489 2.503725,1.4457 2.404716,5.79852 l -0.09035,3.97212 -1.195936,-4.41348 -1.195914,-4.41348 0.429925,6.37046 c 0.236466,3.50375 0.982911,8.76684 1.658785,11.69573 1.377471,5.96927 1.050559,6.84733 -0.843312,2.26507 z m 1.913287,-4.18704 c -0.294555,-1.11159 -0.501447,-2.8155 -0.459756,-3.78647 0.04168,-0.97096 0.435416,-0.21588 0.874953,1.67795 0.851255,3.66777 0.487479,5.51515 -0.415197,2.10852 z m 35.25029,-9.34566 C 55.209292,146.6678 44.621636,136.52549 43.032885,133.41957 38.58771,124.7295 48.473482,89.291561 56.97352,83.446016 c 4.492045,-3.0892 14.523751,-4.920893 27.353138,-4.994416 14.258011,-0.08171 14.054534,-0.23642 16.746552,12.732965 2.30266,11.093585 5.82241,25.164385 7.48996,29.942455 0.66385,1.90214 1.00829,4.22662 0.76542,5.16554 -0.47034,1.81824 -5.21751,6.03736 -11.655545,10.35903 -2.161024,1.45065 -8.284433,6.90809 -13.607557,12.1277 -7.011634,6.87526 -10.259534,9.4785 -11.787424,9.44783 -1.171285,-0.0235 -5.015896,-2.28024 -8.646743,-5.0755 z m 17.591937,-7.50351 c 4.485217,-4.51433 10.951154,-10.09262 14.368741,-12.39619 9.161131,-6.17492 10.045991,-7.32234 8.963441,-11.62314 -0.48758,-1.9371 -1.18442,-4.92235 -1.5485,-6.63393 -0.36411,-1.71156 -1.14257,-3.89624 -1.72994,-4.85482 -0.98734,-1.61138 -1.02842,-1.57639 -0.54443,0.46385 0.51099,2.15417 0.49018,2.16467 -0.873271,0.44135 -0.768205,-0.97097 -1.21835,-2.46012 -1.000315,-3.30924 0.218024,-0.84911 0.04037,-1.76628 -0.394774,-2.03815 -0.435138,-0.27188 -0.791165,-1.38046 -0.791165,-2.46351 0,-1.08307 -0.540419,-4.138013 -1.200923,-6.788808 -0.660505,-2.650783 -1.462234,-5.945801 -1.7816,-7.322255 -0.319367,-1.376454 -1.604443,-3.461825 -2.855717,-4.63415 -1.251274,-1.172329 -1.856889,-2.131506 -1.345809,-2.131506 2.207425,0 3.970465,1.331685 5.141493,3.883555 l 1.255834,2.736659 -0.527575,-2.648086 c -0.88647,-4.449567 -3.090995,-5.30425 -12.655976,-4.90666 -5.142125,0.213742 -16.794393,2.775689 -21.14378,4.648818 -3.299343,1.420896 -4.616252,2.675049 -6.627574,6.311719 -5.47911,9.906754 -9.728438,24.663134 -9.758623,33.888114 -0.01471,4.49606 0.13445,4.77915 5.005407,9.50011 9.013333,8.73574 19.792972,18.08414 20.85281,18.08414 0.570529,0 4.70704,-3.69355 9.192246,-8.20787 z m 11.210933,-12.89463 c 0,-1.13494 8.694579,-8.35795 9.310809,-7.73496 1.03711,1.04845 -0.5506,3.09456 -4.483287,5.77775 -4.377238,2.98648 -4.827522,3.16904 -4.827522,1.95721 z M 100.82,105.54677 c -0.29014,-0.29332 -0.4965,0.22804 -0.45859,1.15853 0.0419,1.0283 0.2488,1.23746 0.52752,0.5333 0.25222,-0.63718 0.2212,-1.39852 -0.0689,-1.69183 z m -0.822399,-3.99052 c -0.242235,-0.60685 -0.440404,-0.11034 -0.440404,1.10336 0,1.21371 0.198169,1.71024 0.440404,1.10337 0.242219,-0.60684 0.242219,-1.59988 0,-2.20673 z m -0.92389,-3.953753 c -0.290135,-0.293303 -0.496502,0.228031 -0.45859,1.158547 0.04189,1.028284 0.248797,1.237445 0.527522,0.533291 0.252222,-0.637191 0.221213,-1.398525 -0.06893,-1.691838 z m -0.873144,-4.41347 c -0.290135,-0.293314 -0.496502,0.228021 -0.45859,1.158537 0.0419,1.028294 0.248797,1.237455 0.527522,0.533291 0.252222,-0.637192 0.221202,-1.398525 -0.06893,-1.691828 z m -0.873144,-3.530789 c -0.290135,-0.293314 -0.496503,0.228032 -0.45859,1.158537 0.04189,1.028295 0.248797,1.237466 0.527532,0.533302 0.252222,-0.637203 0.221203,-1.398525 -0.06894,-1.691839 z M 242.03517,123.62366 c -1.37591,-2.73647 -2.01681,-6.02029 -2.36879,-12.13709 -0.26539,-4.61208 -0.75477,-9.34145 -1.0875,-10.5097 -0.40141,-1.409419 -0.29141,-1.928196 0.32693,-1.541856 0.51254,0.320233 1.37659,3.460756 1.92009,6.978926 1.81011,11.71686 2.46032,15.20044 3.37701,18.0924 1.2858,4.05648 0.0659,3.55975 -2.16774,-0.88268 z m 2.93497,-0.822 c -0.68169,-1.64937 -1.5205,-5.76374 -1.864,-9.14304 -0.3435,-3.3793 -1.22176,-8.85336 -1.95169,-12.16459 -1.46441,-6.643103 -0.99213,-8.719879 0.91997,-4.045442 1.28409,3.139192 5.1866,27.289002 4.51886,27.964032 -0.21105,0.21335 -0.94145,-0.96158 -1.62314,-2.61096 z M 172.7633,63.761412 c -10.66313,-5.639091 -34.58187,-12.127291 -40.91577,-11.09882 -1.74786,0.28381 -2.70426,0.216841 -2.12534,-0.148818 1.19758,-0.75641 0.276,-9.232001 -1.94672,-17.903588 -2.40833,-9.395825 -2.21155,-9.620456 10.4987,-11.984184 13.24569,-2.463304 30.17728,0.08878 42.34742,6.382983 4.41408,2.282894 7.21479,4.700347 12.60181,10.877336 3.80951,4.368152 7.01774,8.571272 7.12938,9.340265 0.11165,0.768994 -1.19508,2.480562 -2.90384,3.803484 -1.70875,1.322921 -6.20398,4.887894 -9.9894,7.922162 -3.78541,3.034268 -7.56011,5.479043 -8.38826,5.432835 -0.82812,-0.04621 -3.66672,-1.226852 -6.30798,-2.623655 z m 11.66244,-5.228648 c 2.46988,-1.93756 4.88362,-3.836933 5.36385,-4.220829 0.48022,-0.383897 2.35298,-1.615527 4.16171,-2.736955 l 3.28857,-2.038962 -3.69701,-4.46398 C 182.81389,32.117247 168.39849,25.552166 150.49817,25.468572 c -9.07618,-0.04239 -19.16699,1.547398 -20.16301,3.176633 -0.23975,0.392178 0.66261,4.060154 2.00526,8.151057 2.11779,6.452671 2.8171,7.622602 5.2789,8.831477 1.56074,0.766407 2.83771,1.803419 2.83771,2.304468 0,0.501049 1.24737,0.814912 2.77193,0.697473 1.58107,-0.121791 2.92523,0.251405 3.12876,0.868676 0.19626,0.595209 1.6338,1.082198 3.19455,1.082198 1.56074,0 3.10699,0.272225 3.43609,0.604945 0.59904,0.605579 1.58643,0.996874 11.62055,4.605125 2.95862,1.063916 7.28067,2.887858 9.60456,4.053204 2.32389,1.165347 4.56193,2.139728 4.9734,2.165293 0.41147,0.02556 2.76897,-1.538795 5.23887,-3.476357 z m -48.7798,-10.614697 c -0.30163,-0.4934 -0.9142,-0.668566 -1.36124,-0.389252 -1.2111,0.756681 -0.98527,1.286347 0.54843,1.286347 0.74868,0 1.11444,-0.403692 0.81281,-0.897095 z M 50.554957,61.652762 c -0.858812,-1.046126 -0.441624,-2.027785 2.240125,-5.271113 3.257266,-3.939367 12.571695,-12.532999 12.571695,-11.598833 0,0.265579 -1.86968,2.572447 -4.154836,5.126371 -2.285145,2.553924 -5.109842,6.033746 -6.27707,7.732935 -1.16724,1.69919 0.55656,0.194577 3.830674,-3.343583 3.274092,-3.538161 6.153882,-6.229847 6.39951,-5.981526 0.24564,0.24832 -0.96146,2.027116 -2.682445,3.952875 -1.720974,1.925761 -3.744713,4.704976 -4.497194,6.176034 -2.100934,4.10722 -5.490402,5.570045 -7.430459,3.20684 z m 170.978733,0.182166 c -0.73289,-0.606854 -2.80006,-2.965672 -4.59372,-5.241821 -1.79367,-2.276147 -6.96639,-7.220376 -11.49494,-10.987177 -7.67641,-6.385144 -9.77456,-8.395636 -7.1423,-6.8439 4.51248,2.660153 16.43474,13.608056 21.76198,19.983462 3.50921,4.199676 3.96343,5.15494 1.46898,3.089436 z"
         id="path141" />
    </g>
  </g>
</svg>
