<?xml version="1.0" encoding="UTF-8" standalone="no"?>
<!-- Created with Inkscape (http://www.inkscape.org/) -->

<svg
   width="1024"
   height="1024"
   viewBox="0 0 270.93333 270.93333"
   version="1.1"
   id="svg5"
   inkscape:version="1.2 (dc2aedaf03, 2022-05-15)"
   sodipodi:docname="Brush.svg"
   inkscape:export-filename="Brush.png"
   inkscape:export-xdpi="96"
   inkscape:export-ydpi="96"
   xmlns:inkscape="http://www.inkscape.org/namespaces/inkscape"
   xmlns:sodipodi="http://sodipodi.sourceforge.net/DTD/sodipodi-0.dtd"
   xmlns="http://www.w3.org/2000/svg"
   xmlns:svg="http://www.w3.org/2000/svg">
  <sodipodi:namedview
     id="namedview7"
     pagecolor="#ffbaba"
     bordercolor="#666666"
     borderopacity="1.0"
     inkscape:showpageshadow="2"
     inkscape:pageopacity="0"
     inkscape:pagecheckerboard="0"
     inkscape:deskcolor="#d1d1d1"
     inkscape:document-units="mm"
     showgrid="false"
     inkscape:zoom="0.47748556"
     inkscape:cx="-140.31838"
     inkscape:cy="452.3697"
     inkscape:window-width="1920"
     inkscape:window-height="1009"
     inkscape:window-x="-8"
     inkscape:window-y="-8"
     inkscape:window-maximized="1"
     inkscape:current-layer="layer1" />
  <defs
     id="defs2" />
  <g
     inkscape:label="Layer 1"
     inkscape:groupmode="layer"
     id="layer1">
    <path
       style="fill:#ffffff;stroke:#ffffff;stroke-width:23.1594;stroke-linecap:round;stroke-linejoin:round;stroke-miterlimit:5;stroke-dasharray:none;stroke-opacity:1"
       id="path920"
       d="m 115.9668,54.394075 c 5.3023,-0.951915 10.69397,-1.173323 16.06433,-1.412076 7.04255,-0.146672 14.29183,-0.195642 21.11441,1.840991 1.21435,0.362499 2.37974,0.872407 3.5696,1.308611 3.98331,1.763004 7.68824,4.196037 10.57811,7.4901 1.64238,1.872084 1.87737,2.492206 3.12511,4.606448 1.57848,3.014632 2.48953,6.261045 1.91831,9.675605 -0.39854,2.382367 -0.8198,2.900678 -1.83459,5.121765 -0.54346,0.849125 -1.01211,1.751071 -1.6304,2.547373 -0.71308,0.918402 -1.5263,1.757096 -2.34941,2.578337 -3.54487,3.536789 -7.71036,6.288579 -11.91361,8.96295 -0.95813,0.565852 -1.90002,1.16017 -2.87441,1.69758 -0.11172,0.06149 -0.25568,0.03848 -0.37124,0.09254 -4.08687,1.908551 -1.82622,1.064243 -6.05046,2.849251 -2.55549,1.07984 -4.28115,1.67545 -6.90232,2.63674 -8.09909,2.86058 -16.34655,5.26492 -24.54663,7.81164 -4.72325,1.45095 -9.20266,3.42836 -13.23329,6.32957 -1.22881,0.88447 -1.811054,1.99664 -2.618357,3.21646 -0.262915,0.60774 -0.569304,1.19847 -0.788746,1.82323 -0.876409,2.49519 -1.26811,5.40736 -0.803183,8.02581 0.125556,0.70716 0.364446,1.38944 0.546664,2.08417 1.735684,4.33316 4.900722,7.80012 8.424842,10.77855 0.84809,0.71679 1.74137,1.37836 2.61205,2.06754 5.90414,4.24862 12.38644,7.59892 18.68799,11.20576 3.3721,1.93784 6.65397,4.02215 9.80491,6.30252 1.84675,1.33652 3.52276,2.58158 5.17419,4.15116 0.70116,0.6664 1.33171,1.40337 1.99757,2.10505 2.05721,2.62094 3.89189,5.63957 4.11505,9.0593 0.13615,2.0862 -0.21927,2.95436 -0.67942,4.97884 -1.63706,4.94124 -4.55427,9.31183 -7.93195,13.23186 -0.75639,0.87785 -1.56004,1.71386 -2.34007,2.57079 -3.98055,4.12981 -7.99138,8.26113 -12.28321,12.07305 -0.87887,0.7806 -1.78475,1.53025 -2.67712,2.29538 -3.86473,3.27419 -8.01033,6.19191 -12.27706,8.91299 4.00006,10.263 6.90288,9.13161 2.9028,-1.13139 v 0 c 4.13922,-2.72618 8.17475,-5.61663 11.95525,-8.82781 5.25638,-4.52043 10.21985,-9.34661 14.96031,-14.40614 0.77741,-0.86116 1.57707,-1.70274 2.33223,-2.58351 3.42459,-3.994 6.43356,-8.41377 8.08351,-13.44839 0.46388,-2.08134 0.82608,-2.966 0.66523,-5.10962 -0.26135,-3.48273 -2.16409,-6.52205 -4.31296,-9.14953 -0.68993,-0.69826 -1.34392,-1.43396 -2.0698,-2.09476 -1.66235,-1.51326 -3.47946,-2.8037 -5.31449,-4.09419 -3.19258,-2.24524 -6.49012,-4.33014 -9.86549,-6.2898 -5.08076,-2.9644 -1.74795,-1.02334 -6.72902,-3.91602 -4.00479,-2.32572 -8.09106,-4.54306 -11.79209,-7.34718 -0.85596,-0.69087 -1.73523,-1.35377 -2.56786,-2.07257 -3.44343,-2.97269 -6.48361,-6.4558 -8.105169,-10.7607 -0.165602,-0.68439 -0.383016,-1.35831 -0.496807,-2.05322 -0.425203,-2.59648 -0.02511,-5.43199 0.886656,-7.88776 0.22549,-0.60735 0.53665,-1.17938 0.80497,-1.76908 0.37097,-0.53975 0.69202,-1.11746 1.1129,-1.61924 0.44121,-0.526 1.09714,-0.86916 1.46212,-1.45064 0.1205,-0.19196 -0.8521,0.28737 -0.65829,0.16993 2.75707,-1.67046 5.88292,-2.65426 8.89535,-3.72921 8.16943,-2.6073 16.40123,-5.0194 24.52213,-7.77782 2.51334,-0.90326 4.37838,-1.53759 6.83369,-2.55773 4.91105,-2.04045 9.57328,-4.618956 14.09899,-7.401328 4.19264,-2.706214 8.33482,-5.489787 11.88584,-9.029816 0.85656,-0.853927 1.70872,-1.720634 2.45105,-2.675551 0.63025,-0.810717 1.10054,-1.733978 1.65082,-2.60097 1.03699,-2.264435 1.49019,-2.831254 1.88232,-5.263995 0.57177,-3.547136 -0.42406,-6.696921 -2.06589,-9.804698 -1.26441,-2.098759 -1.54937,-2.792061 -3.20924,-4.642472 -2.96731,-3.307959 -6.7926,-5.701025 -10.83195,-7.471748 -1.20399,-0.439996 -2.38229,-0.957934 -3.61199,-1.319987 -6.8168,-2.007054 -14.18221,-1.9096 -21.21379,-1.855412 -5.09668,0.130319 -10.19838,0.248747 -15.27161,0.791899 -7.63896,-10.24379 -10.53635,-8.083165 -2.89738,2.160624 z" />
  </g>
</svg>
